<?xml version="1.0" encoding="UTF-8" standalone="no"?>
<svg width="1000px" height="1000px" viewBox="0 0 1000 1000" version="1.1" xmlns="http://www.w3.org/2000/svg" xmlns:xlink="http://www.w3.org/1999/xlink" xmlns:sketch="http://www.bohemiancoding.com/sketch/ns">
    <title>Banner</title>
    <description>Created with Sketch (http://www.bohemiancoding.com/sketch)</description>
    <defs></defs>
    <g id="Page-1" stroke="none" stroke-width="1" fill="none" fill-rule="evenodd" sketch:type="MSPage">
        <g id="banner" sketch:type="MSLayerGroup">
            <g id="Page-1" sketch:type="MSShapeGroup">
                <path d="M500,1000 C776.142389,1000 1000,776.142389 1000,500 C1000,223.857611 776.142389,0 500,0 C223.857611,0 0,223.857611 0,500 C0,776.142389 223.857611,1000 500,1000 Z" id="Oval-1" fill="#EC2028"></path>
                <g id="Robbinsville-High-School-Logo" transform="translate(208.000000, 139.000000)" fill="#252122">
                    <path d="M209.5976,8.47311177 C217.779111,2.88779659 227.75383,0.625132412 237.524775,0.0951390007 C257.759496,-0.771196382 277.698745,4.3860472 296.58856,11.2046163 C307.398751,15.3222574 318.484036,19.582589 327.470453,27.0942264 C342.834984,39.630609 352.076119,58.1192253 357.068572,77.0053367 C358.556119,82.2543098 359.473101,87.6459736 360.614233,92.9866765 C362.611214,101.629646 366.880272,109.793583 373.115744,116.153504 C382.295746,125.397812 394.16556,131.513121 403.009335,141.144731 C405.220279,144.355268 409.479148,142.449331 412.688583,143.132207 C432.841794,145.680252 451.87425,153.304004 471.059538,159.592579 C485.01803,162.558503 498.497655,155.536091 510.173884,148.656369 C513.464828,161.610631 504.631241,173.504907 495.614259,181.770765 C502.562939,183.99266 508.676148,188.110301 514.371621,192.564285 C529.583322,204.529905 542.400683,219.237223 553.750873,234.851644 C564.469366,250.048185 573.659556,266.488173 579.467106,284.222568 C583.685219,297.299137 585.987861,311.170695 584.592012,324.919946 C583.624087,318.488681 580.455407,312.719907 577.215406,307.185552 C572.294273,299.042 566.843329,291.183828 560.444838,284.130839 C555.126346,278.056299 548.982571,272.50156 541.585588,269.097372 C563.858046,303.180025 574.882199,344.325859 573.048236,384.972277 C571.621821,424.599477 559.161064,463.40111 539.415399,497.626453 C538.223324,483.703935 537.347097,469.740647 535.411247,455.889472 C534.54521,450.018776 533.597662,443.974813 530.530869,438.776801 C532.894644,463.513224 529.807473,488.443298 523.755396,512.445885 C513.709356,551.594052 496.826712,589.34589 472.11916,621.471645 C459.077648,637.942209 443.713117,653.169328 424.935377,662.964014 C435.185191,650.539745 441.807833,635.353395 444.405947,619.494362 C446.423306,607.854891 446.606702,595.970808 445.791608,584.219223 C436.907078,620.829538 418.8833,656.420633 389.509333,680.769754 C361.235743,704.68061 324.658377,716.350657 288.356106,720.580413 C258.625534,724.106908 228.568925,723.352686 198.78741,721.028868 C189.923257,720.447914 181.120236,719.265621 172.256084,718.857934 C189.709295,718.215826 206.693826,712.589743 222.139867,704.68061 C231.391189,699.737402 240.408172,693.418251 245.797985,684.184134 C237.891567,681.493399 232.094209,675.041749 226.734962,668.946824 C214.722507,654.433159 204.085524,638.339704 197.911183,620.432043 C193.367031,638.727007 198.991183,659.620979 213.347035,672.157361 C178.613821,658.306187 151.022872,630.746529 131.083623,599.660378 C117.787394,578.593139 106.885505,555.823807 100.303617,531.749876 C98.520598,547.496795 98.2149374,564.099858 104.76626,578.888712 C106.38626,582.863663 108.637958,586.512464 110.696072,590.263187 C81.5564438,567.85058 62.9519118,534.57311 50.868136,500.419111 C40.190398,470.08718 34.1892649,438.277384 31.0409624,406.335089 C28.3307732,377.440255 27.7805843,348.280426 30.511151,319.365209 C31.5402078,309.020145 32.9768118,298.664889 35.9519067,288.676552 C25.4269991,302.425803 17.6326579,318.651755 15.8903935,336.029424 C14.9734121,344.753932 15.4624688,353.559976 16.6952993,362.233521 C5.64058014,346.374488 -0.839421094,327.009344 0.0877488941,307.583047 C0.923220752,286.699268 9.64473185,266.671632 22.4824701,250.39472 C28.3919053,242.944235 35.0247367,235.738364 43.3692666,230.998999 C30.6537924,230.560736 19.038696,220.174903 17.6020919,207.434677 C41.3213417,209.554651 65.5092709,209.350806 88.7598414,203.704339 C107.445883,199.229971 125.490037,191.04565 140.171926,178.509267 C147.660607,172.35319 153.957213,164.933282 159.754571,157.197417 C147.56891,158.5224 135.525888,153.599577 126.641358,145.425447 C118.877583,138.229767 111.827016,129.209687 110.196827,118.467129 C120.334564,124.348017 132.020981,129.199495 143.972305,126.987793 C157.207402,124.633398 167.141365,114.145644 173.927027,103.158473 C162.576836,106.053052 149.830796,107.082463 139.163247,101.344265 C130.757585,97.0227801 125.408527,88.6346151 122.280602,79.9712614 C129.005132,81.3777824 136.055699,81.8568149 142.739474,79.9406848 C153.396834,77.2397568 162.260988,70.4721486 171.328913,64.581068 C168.34363,63.9593451 165.388913,63.0420488 162.851931,61.3093779 C153.733062,55.3061834 146.967777,46.163797 142.800607,36.1550754 C148.822117,37.1844856 154.914949,38.6113909 161.058723,37.8164008 C173.957593,36.6341079 185.664389,29.9276527 195.272314,21.5394877 C200.285146,17.442231 204.156844,12.0709517 209.5976,8.47311177 Z M263.54541,421.583496 L263.54541,415.260254 C263.54541,401.246512 265.681619,389.796431 269.954102,380.909668 C274.226584,372.022905 282.116316,362.509654 293.623535,352.369629 L309.175293,338.868652 C317.378459,331.918748 323.245913,325.025913 326.777832,318.189941 C330.309751,311.35397 332.075684,303.49272 332.075684,294.605957 C332.075684,280.136484 327.319058,268.629437 317.805664,260.084473 C308.29227,251.539508 295.788326,247.26709 280.293457,247.26709 C271.292761,247.26709 262.861856,248.263987 255.000488,250.257812 C247.139121,252.251638 238.65125,255.470193 229.536621,259.913574 L223.213379,246.241699 C235.745994,240.772922 246.256142,237.127125 254.744141,235.304199 C263.232139,233.481273 271.976355,232.569824 280.977051,232.569824 C301.826764,232.569824 318.23285,238.180933 330.195801,249.40332 C342.158751,260.625707 348.140137,276.034896 348.140137,295.631348 C348.140137,303.378782 347.114756,310.157686 345.063965,315.968262 C343.013173,321.778838 340.136412,327.162085 336.433594,332.118164 C332.730776,337.074244 328.258978,341.859352 323.018066,346.473633 C317.777155,351.087914 311.966666,356.072402 305.586426,361.427246 C298.294723,367.579621 292.683613,373.19073 288.75293,378.260742 C284.822246,383.330755 281.973967,388.657036 280.208008,394.239746 C278.442048,399.822456 277.559082,408.13943 277.559082,419.190918 L277.559082,421.583496 L263.54541,421.583496 Z M257.905762,472.682129 C257.905762,461.516708 262.463008,455.934082 271.577637,455.934082 C280.920131,455.934082 285.591309,461.516708 285.591309,472.682129 C285.591309,483.847549 280.920131,489.430176 271.577637,489.430176 C262.463008,489.430176 257.905762,483.847549 257.905762,472.682129 Z" id="Shape"></path>
                </g>
            </g>
        </g>
    </g>
</svg>