<?xml version="1.0" encoding="UTF-8" standalone="no"?>
<svg width="1920px" height="1080px" viewBox="0 0 1920 1080" version="1.1" xmlns="http://www.w3.org/2000/svg" xmlns:xlink="http://www.w3.org/1999/xlink" xmlns:sketch="http://www.bohemiancoding.com/sketch/ns">
    <title>Banner</title>
    <description>Created with Sketch (http://www.bohemiancoding.com/sketch)</description>
    <defs></defs>
    <g id="Page-1" stroke="none" stroke-width="1" fill="none" fill-rule="evenodd" sketch:type="MSPage">
        <g id="banner" sketch:type="MSLayerGroup">
            <g id="Page-1" sketch:type="MSShapeGroup">
                <rect id="bg" fill="#EC2028" x="0" y="0" width="1920" height="1080"></rect>
                <g id="Robbinsville-High-School-Logo" transform="translate(722.000000, 246.000000)">
                    <path d="M170.544372,6.89099547 C177.201465,2.34858146 185.317646,0.508406443 193.268022,0.0773744571 C209.732513,-0.627197058 225.956586,3.56707573 241.32676,9.11246801 C250.122744,12.461255 259.142566,15.926089 266.454591,22.0351385 C278.956329,32.2307028 286.475611,47.2670878 290.537847,62.6267469 C291.748227,66.8956213 292.494352,71.2805429 293.422863,75.6240191 C295.047757,82.6531561 298.521384,89.2927065 303.595033,94.4650903 C311.064573,101.983283 320.722746,106.956729 327.918707,114.789906 C329.717697,117.400965 333.183033,115.850908 335.794471,116.406276 C352.192639,118.478545 367.678877,124.678775 383.28947,129.793135 C394.647149,132.205256 405.615186,126.494082 415.115844,120.898956 C417.793604,131.434372 410.605933,141.107725 403.269038,147.830166 C408.923007,149.637184 413.897173,152.985971 418.531439,156.608298 C430.908823,166.339674 441.337992,178.300812 450.57336,190.999677 C459.294732,203.35869 466.772562,216.728971 471.498021,231.151964 C474.930195,241.78685 476.803798,253.068283 475.66803,264.250247 C474.880454,259.01984 472.302177,254.328223 469.665869,249.827254 C465.661665,243.204282 461.226367,236.813404 456.020073,231.077363 C451.692548,226.137073 446.693511,221.619526 440.674769,218.850975 C458.797316,246.569647 467.767396,280.032649 466.275146,313.089487 C465.114507,345.317417 454.975498,376.873932 438.90894,404.708651 C437.938978,393.385773 437.226014,382.029738 435.650861,370.764882 C434.946188,365.990374 434.175192,361.074952 431.679818,356.847523 C433.603163,376.965112 431.091209,397.240193 426.166784,416.760969 C417.99257,448.599312 404.255581,479.302052 384.151658,505.429222 C373.540103,518.824369 361.038365,531.20825 345.759384,539.174053 C354.099403,529.069668 359.488083,516.718944 361.602104,503.821141 C363.243579,494.355015 363.392804,484.689952 362.729582,475.132646 C355.50046,504.90701 340.834959,533.852465 316.93409,553.65507 C293.92857,573.101243 264.166474,582.592236 234.628216,586.032203 C210.437187,588.900224 185.980869,588.286832 161.748388,586.396922 C154.535847,585.924445 147.373047,584.962912 140.160506,584.631349 C154.361751,584.109137 168.181643,579.533567 180.749704,573.101243 C188.277275,569.081041 195.614171,563.941814 199.999728,556.43191 C193.566472,554.243594 188.849305,548.996609 184.488619,544.039741 C174.714382,532.236096 166.059332,519.147643 161.035424,504.583736 C157.33796,519.462628 161.914193,536.455236 173.595194,546.6508 C145.333639,535.385945 122.883568,512.972281 106.659495,487.690598 C95.840683,470.557076 86.9700863,452.039279 81.6145671,432.46048 C80.1637686,445.267103 79.9150602,458.770009 85.2457086,470.797459 C86.5638627,474.030199 88.396014,476.997689 90.07065,480.048069 C66.3604568,461.820389 51.2224103,434.756554 41.3901414,406.979858 C32.7019307,382.311566 27.8189574,356.441358 25.2572617,330.463392 C23.0520479,306.963859 22.6043729,283.248811 24.8261673,259.732701 C25.6634853,251.319288 26.8324144,242.897586 29.2531754,234.774291 C20.6893189,245.956255 14.3472567,259.152465 12.9296193,273.285341 C12.1834943,280.380791 12.5814276,287.542553 13.5845512,294.596557 C4.58960025,281.698754 -0.683016138,265.949508 0.0713991002,250.150528 C0.751201843,233.16621 7.84767925,216.878174 18.2934287,203.640519 C23.1017896,197.581204 28.4987601,191.720827 35.2884973,187.866406 C24.9422311,187.509976 15.491315,179.063407 14.3223859,168.702061 C33.6221515,170.426189 53.30327,170.260407 72.2216829,165.668259 C87.4260515,162.029354 102.108133,155.373226 114.054422,145.177661 C120.147776,140.171059 125.271168,134.136611 129.988335,127.845202 C120.073164,128.922782 110.274056,124.919158 103.044934,118.271318 C96.7277427,112.41923 90.9908708,105.083397 89.6644264,96.3467107 C97.9132524,101.129508 107.4222,105.075108 117.146696,103.276379 C127.915766,101.361602 135.998786,92.8321422 141.520111,83.8965176 C132.284742,86.2506153 121.913605,87.0878121 113.233685,82.4210619 C106.394206,78.9064934 102.04181,72.0845833 99.4966953,65.0388682 C104.968278,66.1827608 110.70515,66.5723474 116.143572,65.0140009 C124.815202,62.8173956 132.027744,57.3134487 139.40609,52.5223624 C136.977039,52.0167288 134.572859,51.2707119 132.50858,49.8615688 C125.088782,44.9793027 119.584037,37.5440009 116.193314,29.4041277 C121.092868,30.2413244 126.050454,31.4017951 131.049491,30.7552471 C141.544982,29.7937143 151.070511,24.3395018 158.888242,17.5175917 C162.967059,14.1853829 166.117364,9.81703952 170.544372,6.89099547 L170.544372,6.89099547 L170.544372,6.89099547 Z" id="Shape" fill="#252122"></path>
                    <path d="M184.401923,7.04277174 C195.409578,3.69193628 207.230158,4.90288177 218.262698,7.52383228 C229.353305,10.1862535 239.995974,14.4660335 250.223886,19.4839925 C257.382595,22.9758285 264.010415,27.7034924 269.169994,33.8079847 C277.738877,43.7526672 282.964817,56.1358289 286.075496,68.7844034 C287.527146,74.1590108 287.883838,79.8487957 290.264544,84.9496962 C292.794562,91.0376003 297.116332,96.204854 302.060238,100.501222 C310.670597,108.148426 321.180543,113.564504 328.845256,122.298241 C335.730225,121.800592 342.548833,123.210597 349.259604,124.604014 C361.129954,127.224964 372.768041,130.783154 384.31488,134.565285 C393.970427,137.401883 403.617679,132.782043 411.771805,127.963144 C408.437158,137.841473 399.89316,144.468496 392.593434,151.377521 C405.965205,155.292359 417.039221,164.357861 427.009984,173.75513 C445.781893,192.242784 460.124196,215.151219 469,239.934131 C462.637625,228.969268 453.463196,219.472469 442.173506,213.575331 C438.241608,211.476912 433.894953,210.299143 429.506822,209.635611 C448.693489,236.450589 459.925113,268.938763 460.762923,301.932881 C461.808111,331.319044 454.989503,360.647149 443.094267,387.42895 C441.576256,371.976954 437.511635,356.79037 431.464476,342.499555 C429.979645,339.098954 428.26255,335.797884 426.180469,332.729049 C430.560305,369.745828 424.040322,407.459315 410.759798,442.095674 C399.013875,472.568371 381.834632,501.000707 360.018405,525.327441 C366.662815,512.537866 368.388205,497.857225 367.956857,483.632763 C367.699708,473.430962 366.480322,463.295514 365.601037,453.135184 C358.28472,481.575815 346.961849,509.751033 327.509738,532.153524 C317.903962,543.143269 306.456664,552.532244 293.673848,559.590563 C277.946256,568.432124 260.493274,573.790143 242.824618,577.116096 C223.272965,580.782109 203.372916,582.067702 183.522638,582.797587 C179.441427,582.938587 175.351921,583.145941 171.279006,582.847352 C179.565854,582.175526 187.255452,578.426571 194.024289,573.806731 C201.116637,568.954655 207.570258,562.294455 209.710405,553.734895 C203.630065,552.507361 198.578323,548.642289 194.248258,544.387391 C184.692253,534.658357 177.392527,522.947021 171.245825,510.837566 C166.89917,502.170182 163.182946,493.129562 160.926667,483.682528 C156.231616,494.058506 152.697884,505.330252 153.079461,516.834234 C153.328315,522.880668 155.35233,528.844159 159.234458,533.546941 C136.22373,517.871003 119.144029,494.970862 106.054293,470.702188 C95.4365091,450.572292 87.1662511,429.189981 81.5504389,407.135844 C77.3199158,417.744058 74.9475047,429.098745 74.4249107,440.511492 C74.0516292,448.565109 75.0719319,456.950492 79.2526842,464.000517 C68.4938831,452.836595 60.6964483,439.16784 54.5912227,425.018025 C46.2048326,405.501897 40.7715136,384.857764 36.8230254,364.031161 C31.6385607,335.938884 29.2495594,307.340665 29.4071671,278.775622 C29.8799903,259.466847 30.7177998,239.876071 36.0930527,221.205946 C28.2790276,227.750028 21.2945168,235.529938 16.8897956,244.802795 C10.9421777,256.771249 9.4656422,270.373651 9.67302079,283.577933 C3.18621859,269.453 1.12072787,253.179884 4.84524729,238.018183 C9.05918017,220.451179 19.8843424,205.082124 33.1399817,193.080493 C36.5824662,189.928717 40.3235759,187.108707 44.2720642,184.620463 C37.9843454,184.728287 31.2569841,184.25552 25.873436,180.664155 C23.5342055,179.138032 22.231868,176.550258 21.3111071,173.99566 C40.3152808,175.687666 59.759097,175.513489 78.2904475,170.528707 C91.0566733,167.19446 103.167583,161.313909 113.569693,153.193939 C124.71007,144.584614 133.560988,133.511928 141.789771,122.198711 C124.668595,124.628896 106.278262,117.388106 96.1333011,103.246585 C103.507684,107.294129 111.927254,110.703023 120.504433,109.118841 C130.624508,107.526365 138.612731,100.03675 144.004574,91.7177203 C147.106958,86.8241735 149.595501,81.5408017 151.445318,76.0500763 C142.063511,82.5941584 129.537844,84.0622225 118.754157,80.4708568 C113.013918,78.6876151 107.928995,74.7478952 105.299435,69.2820522 C111.08115,70.2939382 117.103424,70.5842333 122.760712,68.7346385 C134.108468,65.383803 142.287479,56.4012416 151.777124,49.8903361 C140.761173,50.5289854 127.787569,46.2906762 123.283306,35.3175195 C127.513829,35.9312864 131.810713,36.752407 136.091007,36.0308161 C149.064612,34.3636926 160.080562,26.1773693 168.939775,17.0123367 C173.103937,12.4007908 178.454305,8.86748412 184.401923,7.04277174 L184.401923,7.04277174 L184.401923,7.04277174 Z" id="Shape" fill="#FDFDFD"></path>
                    <path d="M191.771149,10.7479633 C200.745076,9.0994393 209.976349,10.3751815 218.734436,12.6367246 C233.751858,16.6544842 247.72329,23.7373387 261.038903,31.6320292 C272.295743,38.756304 278.380746,51.4474539 281.568523,63.9480709 C283.635598,70.8486766 283.809929,78.2214726 286.541124,84.9398293 C288.907053,90.8960544 292.692539,96.2392605 297.291573,100.696074 C306.514544,109.916211 318.51852,115.806164 327.450938,125.349379 C335.07172,124.844052 342.609486,126.426304 349.997825,128.049976 C359.087972,130.17069 368.078501,132.730459 376.911302,135.754133 C386.640665,138.943489 397.81449,139.374259 407.103874,134.569516 C401.608278,141.18018 394.801044,146.498534 388.325871,152.098545 C402.363715,157.350627 414.940494,165.916324 425.973194,175.964865 C437.636807,186.734118 447.698231,199.400416 454.596781,213.74009 C456.232177,217.045422 457.709845,220.441878 458.67282,224.004016 C454.804319,215.761396 446.494513,210.716415 438.09339,208.007534 C433.585673,206.516407 428.87872,205.779127 424.18837,205.166108 C433.959241,218.967319 442.758836,233.588651 448.843838,249.411168 C455.08657,265.283389 458.531694,282.249104 458.938468,299.297659 C459.669,324.555698 453.81644,349.482376 445.548141,373.199584 C444.103679,359.025591 438.790716,345.547457 432.390256,332.922579 C429.675665,327.753338 426.83655,322.608949 423.134079,318.077579 C427.683303,352.895401 424.437415,388.599615 414.30958,422.199683 C404.414186,455.012767 388.408886,485.986794 367.513999,513.166731 C372.137937,498.404571 373.565796,482.61519 371.075344,467.314567 C369.888229,459.179639 367.953979,451.168972 366.384994,443.100317 C358.498565,473.618722 345.581424,503.598664 324.088829,527.100487 C303.949379,549.707633 276.230656,564.726598 246.959551,571.834305 C228.339277,576.58106 209.096389,578.304141 189.944818,579 C196.461499,578.188164 202.737437,575.139637 206.863285,569.945544 C211.321192,564.610622 213.836548,557.941969 215.272709,551.215328 C229.426774,541.423593 243.132558,530.952566 255.833859,519.338341 C267.431061,508.461396 278.40565,496.747763 286.9562,483.286197 C301.840797,459.461297 313.039527,433.424558 321.100288,406.551131 C333.69367,364.377081 338.284402,319.784091 334.067238,275.961517 C332.705791,260.801723 329.816867,245.782758 325.234437,231.260835 C317.821193,207.170846 306.356816,184.571983 294.07889,162.62756 C293.638911,161.550635 292.758951,160.887912 291.613344,160.689095 C297.299874,171.640596 303.044515,182.600382 307.527328,194.115198 C323.715261,234.143681 330.464385,277.726018 328.687863,320.78646 C327.12718,357.203102 319.979584,393.495483 306.464735,427.410344 C293.863051,458.815142 276.670636,488.554847 254.522222,514.243656 C229.078111,501.04718 207.344772,481.049506 191.696436,457.100345 C170.527599,425.074245 159.644327,387.381861 154.389475,349.681193 C147.034342,294.642029 150.828129,238.708188 159.793754,184.099793 C161.005774,176.453624 163.74527,169.155384 165.081813,161.542351 C165.040305,160.90448 164.965591,159.61217 164.932385,158.966015 C160.955965,165.924608 159.287362,173.935276 157.668569,181.705705 C147.341497,242.817072 142.11155,305.726075 152.455224,367.201939 C158.66475,402.939289 170.75174,438.378414 192.509983,467.778473 C207.809656,488.811652 228.181548,505.984468 251.168414,518.120587 C240.318348,530.124162 228.380784,541.208208 215.131583,550.560889 C203.243829,548.456743 194.635168,539.012937 187.720015,529.825936 C176.039798,513.51466 167.962435,494.759593 163.039642,475.366654 C156.896529,484.793892 151.317918,495.032966 149.890059,506.35725 C149.300653,511.344242 149.50819,516.414075 150.230421,521.384499 C127.857867,500.409309 111.885772,473.569018 99.5082287,445.767778 C92.4934575,429.671887 86.6408968,413.062386 82.1995919,396.080103 C76.770408,408.514448 71.4159376,421.321575 70.1624104,434.957105 C69.5979081,440.731081 70.5442796,446.563046 73.2671731,451.715719 C62.798976,436.887287 55.7260942,419.97956 50.2471012,402.765324 C39.0898792,366.895429 34.3331171,329.29417 33.3784441,291.833739 C33.1875095,265.0183 34.133881,237.697535 42.0286118,211.867897 C28.8292197,219.572054 17.8131233,231.443084 12.4337484,245.840746 C9.5365233,253.196974 8.4241217,261.091665 8.09206152,268.953219 C4.8876808,257.421835 5.42727859,245.012342 9.27917666,233.704627 C14.8577877,217.053706 26.1312307,202.937701 38.9819597,191.215784 C43.0912044,187.645362 47.2834641,184.108077 52.0402262,181.424048 C43.381757,181.912807 34.4576397,180.554224 26.596115,176.801554 C49.5331718,178.913984 73.5245198,177.77907 94.7929742,168.153015 C112.740827,160.332881 127.318269,146.523386 139.172817,131.222763 C142.866987,126.409736 146.519649,121.563572 149.964773,116.568296 C141.381017,117.620369 132.689342,119.343449 124.022571,118.21682 C118.942051,117.620369 114.226796,115.168293 110.524325,111.688996 C116.584423,113.113851 123.084501,113.461781 128.937062,111.026273 C139.29734,106.958809 146.229096,97.4487304 151.110381,87.8723797 C154.165334,82.0901194 156.464851,75.9682136 158.606639,69.8048875 C149.856853,76.0179178 139.081501,79.4226584 128.339354,79.1907053 C122.710934,79.1078649 116.708946,77.3765004 113.222314,72.6794495 C116.78366,73.0687994 120.411417,73.400161 123.947858,72.6463134 C131.41091,71.1800382 137.852878,66.7232245 143.556011,61.8853449 C149.699125,56.782376 154.821153,50.6107658 160.823141,45.3504002 C150.911144,46.327917 139.421862,47.2888656 131.24488,40.4545323 C138.824154,40.6367812 146.146081,38.135001 152.895204,34.8959412 C160.922759,30.8284773 168.302796,25.5266915 174.761367,19.280525 C179.3604,14.7574389 185.4288,11.8663088 191.771149,10.7479633 L191.771149,10.7479633 L191.771149,10.7479633 Z" id="Shape" fill="#252122"></path>
                    <path d="M196,68 C206.576962,73.1014837 217.153925,78.2362018 228,82.7394659 C225.007136,84.4261128 221.916412,85.9216617 218.980632,87.7080119 C215.270133,84.1103858 211.796126,80.2801187 208.036697,76.7489614 C208.118247,82.1910979 208.053007,88.3394659 211.975535,92.5768546 C210.417941,93.6985163 208.884811,94.8367953 207.367992,96 C203.478084,86.7109792 199.514781,77.4468843 196,68 L196,68 L196,68 Z" id="Shape" fill="#EC2028"></path>
                    <path d="M209,80 C212.165911,82.816 214.891206,86.064 218,88.944 C216.31913,89.976 214.654578,91.016 212.94107,92 C209.310063,89.088 209.407978,84.16 209,80 L209,80 L209,80 Z" id="Shape" fill="#FDFDFD"></path>
                    <path d="M180.920591,129.023028 C178.272325,121.637968 178.81853,113.635401 179.861285,106 C179.464045,116.455909 182.501275,127.470914 189.808836,135.148038 C197.952256,143.042125 209.968766,147.239509 221.157693,144.861269 C246.581053,138.586055 274.263715,141.206291 297.783634,152.92225 C312.671858,160.273931 325.515951,171.998235 333.510406,186.709941 C335.521434,172.574019 336.613844,158.062585 334.155921,143.901629 C333.129718,137.734895 330.787657,131.793469 326.997326,126.820027 C335.579365,136.116023 338.897974,149.03362 340.354521,161.342052 C341.711757,174.201236 340.966932,187.335794 337.755909,199.877879 C336.878671,203.249137 336.034536,206.628741 335.182125,210 C332.509031,202.681698 330.622141,194.987884 326.558706,188.2704 C317.827702,173.133114 302.881547,162.66886 286.942292,156.410335 C267.06374,148.73321 245.290023,146.046217 224.16182,148.557972 C215.571505,149.86809 206.48464,149.834711 198.332945,146.463452 C190.561937,143.30081 183.78403,137.084009 180.920591,129.023028 L180.920591,129.023028 L180.920591,129.023028 Z" id="Shape" fill="#FDFDFD"></path>
                    <path d="M354,155 C363.96452,158.938453 374.706878,157.625635 385.113537,158.049125 C395.454694,159.45511 405.7631,163.258046 414,170 C401.382642,165.197628 387.659934,165.392434 374.40393,165.239977 C366.420852,164.909656 360.517467,158.929983 354,155 L354,155 L354,155 Z" id="Shape" fill="#FDFDFD"></path>
                    <path d="M355,197.370122 C365.095238,198.097784 375.414079,195.60058 385.36853,198.254893 C397.575569,201.322652 405.824017,212.163166 411,222.987143 C406.006211,216.181847 399.47205,210.087675 391.207039,207.615277 C386.585921,206.118608 381.625259,205.705163 376.838509,206.573397 C383,210.724379 389.583851,214.627296 394.246377,220.55609 C400.383023,227.940209 402.859213,237.606541 403.645963,247 C401.343685,238.995714 397.666667,231.330453 392.192547,225.004753 C383.372671,214.59422 371.405797,207.689697 359.819876,200.818249 C358.122153,199.801176 356.383023,198.792371 355,197.370122 L355,197.370122 L355,197.370122 Z" id="Shape" fill="#FDFDFD"></path>
                    <path d="M183.204501,265.867492 C182.997379,258.262542 182.856536,250.624311 183.245925,243.036003 C207.122954,242.9944 231.008267,243.052644 254.885296,243.002721 C263.71698,242.936157 273.012617,244.067747 280.601568,248.960208 C295.315518,258.894901 300.10418,281.177236 290.253455,296.095917 C286.591538,301.670661 281.015812,305.622905 275.183256,308.62661 C281.413487,320.083957 287.420026,331.657791 293.708251,343.073536 C297.113337,343.081856 300.526708,343.023613 303.94008,343.181702 C304.056068,350.711767 303.964934,358.241832 303.981504,365.771896 C290.949385,366.212883 277.900697,365.846781 264.860293,365.963268 C261.355789,365.946627 257.842999,366.113037 254.355064,365.713653 C254.396488,358.175267 253.990529,350.611921 254.553901,343.098497 C257.072505,343.081856 259.599394,343.081856 262.117998,343.073536 C256.981371,333.105561 251.902739,323.112624 246.749542,313.144649 C240.709864,313.078085 234.67847,313.103046 228.638791,313.128008 C228.572512,323.112624 228.613937,333.105561 228.622222,343.090177 C232.366988,343.081856 236.111754,343.006971 239.848236,343.198343 C239.980794,350.753369 240.312189,358.358319 239.682538,365.896704 C221.778909,365.938306 203.858711,366.16296 185.971651,365.780217 C185.963367,358.241832 185.921942,350.703446 185.979936,343.165061 C189.55072,343.040254 193.121504,343.081856 196.692288,343.081856 C196.758567,317.363149 196.717143,291.644442 196.708858,265.917415 C192.210167,265.84253 187.703192,265.950697 183.204501,265.867492 L183.204501,265.867492 L183.204501,265.867492 Z" id="Shape" fill="#FDFDFD"></path>
                    <path d="M186.094392,262.860856 C185.961919,256.904487 185.970198,250.948119 186.110951,245 C208.639643,245.082498 231.168335,245.024749 253.697027,245.032999 C262.465085,244.826754 271.696798,245.709484 279.338835,250.378881 C292.594416,259.173187 297.495917,278.552009 289.439902,292.370454 C285.896249,298.846561 279.338835,302.765225 272.98841,306.089902 C272.864216,306.320896 272.615829,306.766387 272.491636,306.989132 C278.957975,319.438107 285.821733,331.689087 292.403986,344.080313 C295.599897,344.278309 298.804089,344.22881 302,344.303058 C301.942043,350.185178 301.933763,356.075548 301.99172,361.957668 C287.088506,362.007167 272.185292,362.023667 257.282078,361.949419 C257.191003,356.042549 257.24896,350.12743 257.224121,344.21231 C260.196484,344.23706 263.177127,344.294808 266.132931,343.890567 C265.106265,340.821635 263.524869,337.991947 262.009709,335.14576 C257.662938,326.673197 253.183694,318.258383 248.89488,309.752821 C241.50123,309.513576 234.082741,309.497076 226.689091,309.76932 C226.581457,321.211818 226.51522,332.670815 226.730489,344.113312 C230.50597,344.303058 234.28973,344.21231 238.065211,344.286558 C237.9079,350.176928 238.040373,356.067298 237.949297,361.957668 C221.58888,362.007167 205.220183,362.023667 188.851486,361.949419 C188.97568,356.034299 188.9674,350.11093 188.843207,344.19581 C192.419978,344.253559 195.996749,344.261809 199.573521,344.138062 C199.813628,317.05391 199.631478,289.969757 199.672876,262.893855 C195.143954,262.745358 190.615033,262.778358 186.094392,262.860856 L186.094392,262.860856 L186.094392,262.860856 Z" id="Shape" fill="#EC2028"></path>
                    <path d="M205,253.251587 C208.0393,252.905128 211.112749,252.955829 214.160585,253.167085 C217.080362,253.023431 220.008676,252.99808 222.93699,253.023431 C223.022363,254.814876 223.013826,256.606321 222.954064,258.406216 C222.441823,258.532969 221.408803,258.803376 220.896561,258.93858 C219.624495,262.648223 218.190219,266.307165 216.721793,269.957656 C214.894798,270.033708 213.076341,270.008358 211.257884,269.873154 C209.891906,266.188862 208.440555,262.52992 207.066041,258.854077 C206.570874,258.744225 205.563466,258.532969 205.059762,258.423117 C205.008537,256.699273 205,254.97543 205,253.251587 L205,253.251587 L205,253.251587 Z" id="Shape" fill="#FDFDFD"></path>
                    <path d="M207,256.061823 C209.03348,256.013274 211.066959,256.021366 213.100439,256.013274 C212.878156,256.854782 212.631175,257.680106 212.318332,258.505431 C213.026345,260.584925 213.791987,262.632054 214.549396,264.695366 C215.438529,262.648237 216.2618,260.584925 217.093304,258.521614 C216.780461,257.680106 216.475851,256.84669 216.163008,256.013274 C218.122393,256.021366 220.155873,255.835263 222,256.636313 C221.184962,257.218895 220.369923,257.793386 219.546652,258.351694 C218.105928,261.879552 216.862788,265.480233 215.413831,269 C214.574094,268.910994 213.742591,268.789623 212.927552,268.643978 C211.37157,265.253673 210.482437,261.588261 208.745335,258.278871 C208.341932,258.076586 207.526894,257.663923 207.115258,257.461638 C207.09056,257.113707 207.024698,256.409754 207,256.061823 L207,256.061823 L207,256.061823 Z" id="Shape" fill="#252122"></path>
                    <path d="M227.123828,263.103422 C235.115982,262.943198 243.116531,263.002228 251.108685,263.061258 C257.119591,263.288945 264.020379,266.130814 266.035208,272.320522 C267.789788,277.844036 267.370032,284.767402 262.945804,288.941661 C258.185771,293.32674 251.385724,293.933905 245.223706,293.992935 C239.17922,293.900174 233.126339,294.161592 227.090248,293.807413 C226.981111,283.569938 226.947531,273.332464 227.123828,263.103422 L227.123828,263.103422 L227.123828,263.103422 Z" id="Shape" fill="#FDFDFD"></path>
                    <path d="M229.013906,265.033692 C235.689173,264.983154 242.372837,265.008423 249.048104,265 C253.582247,265.08423 258.536219,266.288719 261.609361,269.876915 C265.900004,275.840397 264.439002,286.116453 257.033234,288.887619 C248.124482,292.239971 238.342487,290.487988 229.039096,290.909138 C228.963527,282.283989 229.022303,273.658841 229.013906,265.033692 L229.013906,265.033692 L229.013906,265.033692 Z" id="Shape" fill="#252122"></path>
                    <path d="M208.231837,274.389142 C211.185796,273.996948 214.199131,273.805024 217.15309,274.280663 C218.59296,275.265319 217.709741,277.568413 217.932401,279.153876 C217.472237,279.412557 216.551908,279.929919 216.091743,280.180255 C216.121431,281.682273 216.165963,283.192635 216.225339,284.694653 C218.585538,285.721032 217.924979,288.574866 217.791383,290.794514 C214.82258,290.944716 211.831511,291.161674 208.870129,290.811203 C207.474792,289.167328 207.749406,285.729377 209.753348,284.702998 C209.79788,283.175946 209.827568,281.648895 209.849834,280.130188 C209.42678,279.854818 208.565827,279.304078 208.135351,279.028708 C208.157617,277.476623 208.187305,275.932882 208.231837,274.389142 L208.231837,274.389142 L208.231837,274.389142 Z" id="Shape" fill="#FDFDFD"></path>
                    <path d="M211.023464,277.026585 C213.322905,276.985685 215.622346,277.002045 217.929609,277.010225 C217.921788,277.541922 217.921788,278.605317 217.913966,279.145194 C217.421229,279.137014 216.435754,279.112474 215.943017,279.104294 C215.96648,282.04908 215.96648,284.985685 215.958659,287.93047 C216.443575,287.91411 217.42905,287.865031 217.913966,287.840491 C217.93743,288.380368 217.984358,289.460123 218,290 C215.669274,289.98364 213.330726,289.96728 211,290 C211.007821,289.460123 211.023464,288.388548 211.031285,287.856851 C211.469274,287.873211 212.353073,287.90593 212.791061,287.92229 C212.814525,284.985685 212.791061,282.04908 212.806704,279.104294 C212.360894,279.112474 211.477095,279.128834 211.031285,279.137014 C211.031285,278.605317 211.023464,277.550102 211.023464,277.026585 L211.023464,277.026585 L211.023464,277.026585 Z" id="Shape" fill="#252122"></path>
                    <path d="M43.6340187,300.755158 C43.3804758,295.50619 42.8818416,290.257221 43.0255158,285 C46.18635,304.031637 51.062824,322.823934 57.6295837,341.005502 C59.5818636,331.828061 64.9823262,322.683631 74,318.672627 C69.8503488,321.635488 67.5938175,326.265475 65.6922461,330.788171 C60.5791321,343.044017 57.3929437,355.976616 55.1617667,369 C51.8234525,363.486933 50.767024,357.057772 49.423247,350.89271 C46.36383,334.328748 44.8341215,317.5337 43.6340187,300.755158 L43.6340187,300.755158 L43.6340187,300.755158 Z" id="Shape" fill="#FDFDFD"></path>
                    <path d="M207.160353,296.217135 C210.771404,295.907394 214.408433,295.94088 218.028143,296.242249 C218.184016,298.469031 218.781528,301.273436 216.157671,302.370084 C216.235607,303.985757 216.313543,305.609801 216.426118,307.233845 C216.625289,305.860942 216.746523,304.471296 216.902396,303.098393 C218.850804,302.989565 220.807872,302.997936 222.76494,303.131878 C222.912154,306.078597 223.223899,309.067172 222.738962,311.997149 C222.505153,312.206433 222.028875,312.625001 221.795066,312.834285 C216.911055,313.018454 211.975087,313.17751 207.117055,312.566401 C207.047779,310.850272 207.039119,309.134143 207.065098,307.426386 C207.524056,307.359415 208.424654,307.242216 208.883612,307.183616 C208.866293,305.576315 208.857634,303.985757 208.840314,302.386827 C206.389649,301.139494 207.056438,298.376946 207.160353,296.217135 L207.160353,296.217135 L207.160353,296.217135 Z" id="Shape" fill="#FDFDFD"></path>
                    <path d="M208.467532,298 C210.755981,298.008166 213.044429,298 215.332878,298.016332 C215.414901,298.506281 215.578947,299.469849 215.669173,299.951633 C215.160629,300.065955 214.151743,300.302764 213.651401,300.417085 C213.634997,303.234296 213.618592,306.059673 213.667806,308.876884 C214.971975,308.876884 216.276145,308.868719 217.588517,308.860553 C217.604921,307.521357 217.621326,306.182161 217.645933,304.851131 C218.220096,304.834799 219.368421,304.802136 219.950786,304.785804 C219.967191,306.851759 219.967191,308.925879 220,311 C215.997266,310.934673 212.002734,311.057161 208,310.90201 C208.196856,309.628141 208.844839,308.68907 210.206425,308.501256 C210.231032,305.880025 210.370472,303.250628 210.132604,300.637563 C209.673274,300.441583 208.746411,300.057789 208.287081,299.861809 C208.328093,299.396357 208.418319,298.465452 208.467532,298 L208.467532,298 L208.467532,298 Z" id="Shape" fill="#252122"></path>
                    <path d="M208.989753,324.228322 C206.71972,323.235859 206.427367,319.783448 207.932124,318.180239 C211.251187,317.823971 214.596047,318.120861 217.932308,318.036035 C218.276252,320.343298 218.895352,323.125586 216.298572,324.364043 C216.358762,326.09449 216.393157,327.841902 216.590925,329.563867 C216.711305,328.164241 216.814489,326.764614 216.900475,325.364988 C218.886754,325.051132 220.907427,325.059615 222.902305,325.348023 C223.039883,328.537474 223.065679,331.743891 222.756129,334.92486 C217.639955,334.984238 212.515183,335.077546 207.390411,334.882447 C207.270031,333.007796 206.599339,330.85322 208.172885,329.368768 C209.531465,327.986106 208.860774,325.933321 208.989753,324.228322 L208.989753,324.228322 L208.989753,324.228322 Z" id="Shape" fill="#FDFDFD"></path>
                    <path d="M208,319.177293 C210.62116,319.342854 213.610922,318.399156 216.019113,319.698811 C215.429352,320.120991 214.25802,320.973631 213.676451,321.40409 C213.651877,324.251741 213.668259,327.10767 213.651877,329.963599 C214.970648,329.963599 216.297611,329.971877 217.632765,329.971877 C217.640956,328.605998 217.640956,327.23184 217.657338,325.874239 C218.238908,325.865961 219.393857,325.857683 219.967235,325.849405 C219.959044,327.894085 219.975427,329.947042 220,332 C216.182935,331.991722 212.36587,331.983444 208.548805,332 C208.466894,331.561263 208.303072,330.692067 208.22116,330.25333 C208.72901,330.145716 209.752901,329.922208 210.260751,329.806315 C210.260751,326.983499 210.285324,324.16896 210.260751,321.346143 C209.073038,321.081246 208.319454,320.352777 208,319.177293 L208,319.177293 L208,319.177293 Z" id="Shape" fill="#252122"></path>
                    <path d="M207.131131,339.311936 C211.678041,338.885056 216.266361,338.935277 220.821552,339.228234 C221.012042,341.488185 221.053453,343.756506 220.92922,346.033198 C219.720024,346.167121 218.502545,346.301044 217.293349,346.426596 C217.318196,346.970659 217.359607,348.058783 217.376171,348.611216 C218.560521,348.711658 219.736588,348.845581 220.920938,349.012985 C221.012042,351.256195 221.028606,353.499406 220.945785,355.742617 C216.324336,356.077424 211.661476,356.102535 207.040027,355.717506 C207.106285,353.65844 206.509969,351.222715 208.381738,349.766302 C208.406585,348.301519 208.406585,346.845106 208.381738,345.397063 C206.509969,343.890429 207.114567,341.396113 207.131131,339.311936 L207.131131,339.311936 L207.131131,339.311936 Z" id="Shape" fill="#FDFDFD"></path>
                    <path d="M208.497738,340 C211.657617,340.032713 214.817496,340 217.984917,340.024535 C217.901961,341.406677 217.803922,342.796997 217.426848,344.130069 C216.87632,341.553887 214.568627,342.150907 212.766214,342.110015 C212.751131,343.353125 212.751131,344.596235 212.751131,345.847523 C213.294118,345.945663 214.395173,346.125587 214.93816,346.223727 C214.387632,346.55904 213.294118,347.221486 212.751131,347.556799 C212.766214,348.669055 212.773756,349.781311 212.781297,350.901746 C213.889894,350.87721 214.998492,350.860854 216.107089,350.860854 C216.536953,350.402866 217.404223,349.478712 217.841629,349.020724 C217.879336,350.329261 217.939668,351.637797 218,352.954512 C214.870287,352.921799 211.72549,353.134436 208.603318,352.848194 L208,351.048956 C208.429864,350.991707 209.304676,350.885389 209.73454,350.82814 C209.674208,348.031143 209.817496,345.242325 209.674208,342.453506 C209.297134,342.249047 208.542986,341.848308 208.165913,341.643849 C208.248869,341.234931 208.414781,340.408918 208.497738,340 L208.497738,340 L208.497738,340 Z" id="Shape" fill="#252122"></path>
                    <path d="M347.319482,350 C348.69219,352.935712 350.642441,356.333221 354.233246,356.83625 C358.719659,357.347526 362.11795,353.793336 364.729445,350.700942 C363.842206,355.830192 365.549722,361.330528 369.349781,364.967183 C371.475805,367.053517 374.723433,368.175025 377.661364,367.259677 C380.373301,366.451531 382.423994,364.398182 384.240322,362.35308 C385.453997,367.474083 386.609081,373.122854 390.610024,376.924436 C392.995524,379.439583 397.180611,378.837597 399.541001,376.586335 C405.140647,371.613766 407.19971,364.126052 408.882115,357.157859 C411.125322,364.208516 411.100212,371.704477 410.932808,379.019017 C410.514299,385.286267 410.06231,391.916358 406.538467,397.35897 C398.929978,391.050488 387.713944,394.060417 380.205897,399 C380.465373,394.439751 380.80018,389.26927 377.895729,385.401717 C375.886887,382.771121 372.086828,382.960788 369.257709,383.9586 C364.110052,385.789297 359.740821,389.219791 355.706397,392.773982 C356.945182,386.910804 358.7364,380.899192 357.731979,374.862841 C357.564575,373.073376 356.434602,371.622013 355.488772,370.17065 C353.95703,370.162403 352.299736,369.906765 350.960508,370.805621 C346.834012,373.205318 343.820749,377.023393 341,380.750757 C343.770528,370.64894 345.528264,360.307977 347.319482,350 L347.319482,350 L347.319482,350 Z" id="Shape" fill="#FDFDFD"></path>
                    <path d="M102.263996,410 C104.995254,424.012338 110.539789,437.308657 117.683709,449.572575 C122.030755,456.782726 126.435216,464.201023 132.709726,469.879226 C130.823272,473.26783 131.545046,477.280871 132.652312,480.802688 C133.97283,485.065503 136.080738,488.995285 138,493 C127.895167,480.91925 119.209276,467.589628 112.188386,453.427425 C105.815451,439.972916 100.771237,425.144648 102.263996,410 L102.263996,410 L102.263996,410 Z" id="Shape" fill="#FDFDFD"></path>
                    <path d="M327,488 C325.694971,503.651175 318.513152,518.462572 308.031355,530.112447 C292.445812,547.509046 270.759049,558.887228 248,564 C262.895623,558.78843 276.386469,550.28361 288.829966,540.757881 C300.8246,531.273318 311.771886,520.150363 319.37763,506.845629 C322.852168,500.975409 325.071549,494.504171 327,488 L327,488 L327,488 Z" id="Shape" fill="#FDFDFD"></path>
                </g>
            </g>
        </g>
    </g>
</svg>