<?xml version="1.0" encoding="UTF-8" standalone="no"?>
<svg width="1000px" height="1000px" viewBox="0 0 1000 1000" version="1.1" xmlns="http://www.w3.org/2000/svg" xmlns:xlink="http://www.w3.org/1999/xlink" xmlns:sketch="http://www.bohemiancoding.com/sketch/ns">
    <title>Banner</title>
    <description>Created with Sketch (http://www.bohemiancoding.com/sketch)</description>
    <defs></defs>
    <g id="Page-1" stroke="none" stroke-width="1" fill="none" fill-rule="evenodd" sketch:type="MSPage">
        <g id="banner" sketch:type="MSLayerGroup">
            <g id="Page-1" sketch:type="MSShapeGroup">
                <path d="M500,1000 C776.142389,1000 1000,776.142389 1000,500 C1000,223.857611 776.142389,0 500,0 C223.857611,0 0,223.857611 0,500 C0,776.142389 223.857611,1000 500,1000 Z" id="Oval-1" fill="#EC2028"></path>
                <g id="Robbinsville-High-School-Logo" transform="translate(208.000000, 139.000000)">
                    <path d="M209.5976,8.47311177 C217.779111,2.88779659 227.75383,0.625132412 237.524775,0.0951390007 C257.759496,-0.771196382 277.698745,4.3860472 296.58856,11.2046163 C307.398751,15.3222574 318.484036,19.582589 327.470453,27.0942264 C342.834984,39.630609 352.076119,58.1192253 357.068572,77.0053367 C358.556119,82.2543098 359.473101,87.6459736 360.614233,92.9866765 C362.611214,101.629646 366.880272,109.793583 373.115744,116.153504 C382.295746,125.397812 394.16556,131.513121 403.009335,141.144731 C405.220279,144.355268 409.479148,142.449331 412.688583,143.132207 C432.841794,145.680252 451.87425,153.304004 471.059538,159.592579 C485.01803,162.558503 498.497655,155.536091 510.173884,148.656369 C513.464828,161.610631 504.631241,173.504907 495.614259,181.770765 C502.562939,183.99266 508.676148,188.110301 514.371621,192.564285 C529.583322,204.529905 542.400683,219.237223 553.750873,234.851644 C564.469366,250.048185 573.659556,266.488173 579.467106,284.222568 C583.685219,297.299137 585.987861,311.170695 584.592012,324.919946 C583.624087,318.488681 580.455407,312.719907 577.215406,307.185552 C572.294273,299.042 566.843329,291.183828 560.444838,284.130839 C555.126346,278.056299 548.982571,272.50156 541.585588,269.097372 C563.858046,303.180025 574.882199,344.325859 573.048236,384.972277 C571.621821,424.599477 559.161064,463.40111 539.415399,497.626453 C538.223324,483.703935 537.347097,469.740647 535.411247,455.889472 C534.54521,450.018776 533.597662,443.974813 530.530869,438.776801 C532.894644,463.513224 529.807473,488.443298 523.755396,512.445885 C513.709356,551.594052 496.826712,589.34589 472.11916,621.471645 C459.077648,637.942209 443.713117,653.169328 424.935377,662.964014 C435.185191,650.539745 441.807833,635.353395 444.405947,619.494362 C446.423306,607.854891 446.606702,595.970808 445.791608,584.219223 C436.907078,620.829538 418.8833,656.420633 389.509333,680.769754 C361.235743,704.68061 324.658377,716.350657 288.356106,720.580413 C258.625534,724.106908 228.568925,723.352686 198.78741,721.028868 C189.923257,720.447914 181.120236,719.265621 172.256084,718.857934 C189.709295,718.215826 206.693826,712.589743 222.139867,704.68061 C231.391189,699.737402 240.408172,693.418251 245.797985,684.184134 C237.891567,681.493399 232.094209,675.041749 226.734962,668.946824 C214.722507,654.433159 204.085524,638.339704 197.911183,620.432043 C193.367031,638.727007 198.991183,659.620979 213.347035,672.157361 C178.613821,658.306187 151.022872,630.746529 131.083623,599.660378 C117.787394,578.593139 106.885505,555.823807 100.303617,531.749876 C98.520598,547.496795 98.2149374,564.099858 104.76626,578.888712 C106.38626,582.863663 108.637958,586.512464 110.696072,590.263187 C81.5564438,567.85058 62.9519118,534.57311 50.868136,500.419111 C40.190398,470.08718 34.1892649,438.277384 31.0409624,406.335089 C28.3307732,377.440255 27.7805843,348.280426 30.511151,319.365209 C31.5402078,309.020145 32.9768118,298.664889 35.9519067,288.676552 C25.4269991,302.425803 17.6326579,318.651755 15.8903935,336.029424 C14.9734121,344.753932 15.4624688,353.559976 16.6952993,362.233521 C5.64058014,346.374488 -0.839421094,327.009344 0.0877488941,307.583047 C0.923220752,286.699268 9.64473185,266.671632 22.4824701,250.39472 C28.3919053,242.944235 35.0247367,235.738364 43.3692666,230.998999 C30.6537924,230.560736 19.038696,220.174903 17.6020919,207.434677 C41.3213417,209.554651 65.5092709,209.350806 88.7598414,203.704339 C107.445883,199.229971 125.490037,191.04565 140.171926,178.509267 C147.660607,172.35319 153.957213,164.933282 159.754571,157.197417 C147.56891,158.5224 135.525888,153.599577 126.641358,145.425447 C118.877583,138.229767 111.827016,129.209687 110.196827,118.467129 C120.334564,124.348017 132.020981,129.199495 143.972305,126.987793 C157.207402,124.633398 167.141365,114.145644 173.927027,103.158473 C162.576836,106.053052 149.830796,107.082463 139.163247,101.344265 C130.757585,97.0227801 125.408527,88.6346151 122.280602,79.9712614 C129.005132,81.3777824 136.055699,81.8568149 142.739474,79.9406848 C153.396834,77.2397568 162.260988,70.4721486 171.328913,64.581068 C168.34363,63.9593451 165.388913,63.0420488 162.851931,61.3093779 C153.733062,55.3061834 146.967777,46.163797 142.800607,36.1550754 C148.822117,37.1844856 154.914949,38.6113909 161.058723,37.8164008 C173.957593,36.6341079 185.664389,29.9276527 195.272314,21.5394877 C200.285146,17.442231 204.156844,12.0709517 209.5976,8.47311177 L209.5976,8.47311177 L209.5976,8.47311177 Z" id="Shape" fill="#252122"></path>
                    <path d="M227.054296,8.51282129 C240.58946,4.39094584 255.124207,5.8805345 268.68997,9.10457569 C282.327133,12.3796302 295.413505,17.6442038 307.989886,23.8168143 C316.792332,28.1121351 324.941991,33.9276524 331.28628,41.4368116 C341.822696,53.6698034 348.248584,68.9023778 352.073518,84.4614374 C353.858486,91.0727624 354.29708,98.0717885 357.224429,104.346426 C360.335373,111.83518 365.649481,118.191438 371.728576,123.476417 C382.315992,132.883271 395.239166,139.54561 404.663802,150.289013 C413.129654,149.676853 421.513908,151.411305 429.765565,153.125353 C444.36151,156.349393 458.671862,160.726336 472.870013,165.37875 C484.742607,168.86806 496.605,163.185177 506.631425,157.257431 C502.531098,169.408802 492.02528,177.560728 483.049437,186.059546 C499.49155,190.875203 513.108313,202.026711 525.3685,213.586328 C548.450697,236.328061 566.08619,264.507814 577,294.993369 C569.176736,281.505449 557.895732,269.8234 544.013775,262.569309 C539.179059,259.988035 533.834352,258.539257 528.438646,257.723044 C552.030835,290.70825 565.841394,330.672077 566.871577,371.258267 C568.156755,407.406298 559.7725,443.482912 545.145955,476.427307 C543.279388,457.419748 538.281474,438.738673 530.845804,421.159487 C529.020036,416.976395 526.908672,412.915736 524.348517,409.140751 C529.734023,454.675231 521.716962,501.066735 505.387048,543.673052 C490.9441,581.157633 469.820266,616.132358 442.994734,646.056766 C451.164792,630.324261 453.286355,612.265548 452.755964,594.767984 C452.43977,582.218709 450.940396,569.751056 449.859215,557.252796 C440.862971,592.237724 426.940213,626.896167 403.021631,654.453556 C391.210237,667.972083 377.134482,679.521497 361.416556,688.203962 C342.077692,699.08 320.617266,705.67092 298.891644,709.762187 C274.850663,714.271764 250.381289,715.853177 225.973115,716.751011 C220.954802,716.924456 215.926289,717.179523 210.918177,716.812227 C221.107799,715.985811 230.563034,711.374208 238.886089,705.691325 C247.606938,699.722768 255.542399,691.53003 258.173953,681.000883 C250.697483,679.490889 244.485792,674.736449 239.161485,669.502483 C227.41129,657.534761 218.435446,643.128602 210.877377,628.232715 C205.53267,617.570933 200.96315,606.450032 198.188799,594.8292 C192.4157,607.59273 188.070574,621.458147 188.539766,635.609239 C188.845761,643.046981 191.334517,650.382694 196.108035,656.167604 C167.813728,636.884573 146.812293,608.715022 130.716974,578.862034 C117.661201,554.100172 107.491978,527.79771 100.586698,500.668832 C95.3847892,513.718037 92.4676399,527.68548 91.8250511,541.724344 C91.3660591,551.631129 92.6206373,561.94602 97.7613477,570.618283 C84.5321781,556.8855 74.9443452,540.071512 67.437276,522.665771 C57.1252555,498.658908 50.4443719,473.264481 45.5892566,447.645598 C39.2143676,413.089181 36.2768187,377.910403 36.4706153,342.772435 C37.0520052,319.020637 38.0821873,294.921949 44.6916721,271.955757 C35.0834395,280.005657 26.4951891,289.575754 21.0790834,300.982331 C13.7658108,315.704772 11.9502424,332.437138 12.205238,348.679776 C4.22897694,331.304642 1.68922118,311.28702 6.26894141,292.636554 C11.4504512,271.027315 24.7612193,252.121782 41.0605354,237.35853 C45.2934617,233.481519 49.8935815,230.012614 54.748697,226.951815 C47.0172316,227.08445 38.7451757,226.502897 32.125491,222.085146 C29.2491411,220.207856 27.647769,217.024625 26.5155888,213.882205 C49.8833818,215.963548 73.7917652,215.749292 96.5781683,209.617493 C112.275695,205.516023 127.167436,198.282334 139.958013,188.293928 C153.656374,177.703565 164.539584,164.083012 174.657809,150.16658 C153.605375,153.15596 130.992369,144.249037 118.517986,126.853498 C127.585629,131.832397 137.938448,136.025691 148.485065,134.076983 C160.928848,132.118072 170.751277,122.905068 177.381161,112.671798 C181.195895,106.652227 184.255841,100.153131 186.530402,93.3989693 C174.994403,101.44887 159.592671,103.254741 146.332901,98.8369882 C139.274624,96.6434158 133.022133,91.7971514 129.78879,85.0735971 C136.898066,86.3183219 144.303137,86.675415 151.259416,84.4002214 C165.212773,80.2783459 175.269797,69.2288629 186.938395,61.2197733 C173.39303,62.0053782 157.440509,56.791818 151.902005,43.2936961 C157.103914,44.0486931 162.387422,45.0587567 167.65053,44.171125 C183.603053,42.12039 197.148416,32.0503626 208.041826,20.7764211 C213.162137,15.1037409 219.741023,10.7574069 227.054296,8.51282129 L227.054296,8.51282129 L227.054296,8.51282129 Z" id="Shape" fill="#FDFDFD"></path>
                    <path d="M235.420596,12.9201658 C246.454762,10.8921046 257.805356,12.461559 268.57413,15.2437737 C287.03926,20.1865359 304.218262,28.9000652 320.590881,38.6123382 C334.432072,47.3768239 341.914074,62.9898379 345.833703,78.3684528 C348.375338,86.8577744 348.589692,95.9279979 351.947916,104.193112 C354.857016,111.520629 359.511577,118.093994 365.166459,123.576892 C376.506845,134.919768 391.266701,142.165755 402.249829,153.90609 C411.620194,153.284423 420.888485,155.230954 429.973043,157.228441 C441.150111,159.837404 452.204691,162.986505 463.065331,166.706315 C475.028367,170.629951 488.767485,171.159897 500.189531,165.248965 C493.432253,173.381592 485.062211,179.924383 477.100464,186.813676 C494.361124,193.274937 509.825287,203.812701 523.390881,216.174702 C537.732233,229.423344 550.103564,245.005784 558.585887,262.646859 C560.596738,266.713173 562.41365,270.89159 563.597706,275.273833 C558.841072,265.133528 548.623496,258.927048 538.293638,255.594506 C532.751037,253.760079 526.963459,252.853056 521.196296,252.098903 C533.210369,269.077545 544.03018,287.065124 551.51218,306.530435 C559.188122,326.056893 563.42418,346.928599 563.924341,367.902217 C564.822589,398.975375 557.626395,429.640884 547.459855,458.818469 C545.683773,441.381219 539.151057,424.800035 531.281175,409.268551 C527.943367,402.909203 524.452446,396.580429 519.89996,391.005809 C525.493598,433.839685 521.502517,477.764025 509.049528,519.099786 C496.882343,559.467376 477.202537,597.572506 451.51059,631.010038 C457.196095,612.849209 458.951762,593.424663 455.889551,574.601401 C454.429897,564.59358 452.051581,554.73863 450.122388,544.812341 C440.425388,582.356951 424.542722,619.23913 398.115845,648.151741 C373.352768,675.963696 339.270365,694.440454 303.279183,703.184558 C280.384056,709.024151 256.723374,711.143934 233.174975,712 C241.187759,711.001256 248.904531,707.250872 253.977593,700.86095 C259.458949,694.297778 262.551782,686.093811 264.317658,677.818505 C281.721221,665.772434 298.573587,652.890679 314.19086,638.602528 C328.450554,625.221401 341.944695,610.810956 352.458286,594.250154 C370.760097,564.940084 384.529838,532.908947 394.441193,499.848492 C409.925771,447.964775 415.570446,393.105209 410.385103,339.19343 C408.711094,320.54342 405.158929,302.066662 399.524462,284.201379 C390.409281,254.565188 376.312906,226.763424 361.216207,199.76677 C360.675217,198.441906 359.593235,197.626605 358.184619,197.382015 C365.176666,210.854863 372.240165,224.337904 377.752145,238.503759 C397.656513,287.747938 405.955105,341.36417 403.770728,394.338352 C401.851742,439.139141 393.063197,483.787062 376.445601,525.510089 C360.950815,564.145166 339.811356,600.731798 312.578096,632.334902 C281.292512,616.100221 254.56962,591.498514 235.32873,562.035574 C209.29994,522.636154 195.91808,476.26591 189.456816,429.885475 C180.413087,362.174728 185.077854,293.363324 196.101812,226.182522 C197.592088,216.775987 200.96052,207.797485 202.603907,198.431715 C202.552869,197.646988 202.461003,196.057151 202.420173,195.262233 C197.530844,203.822892 195.479162,213.677844 193.488726,223.237247 C180.790759,298.418191 174.360118,375.810637 187.078498,451.439995 C194.713611,495.405101 209.575539,539.003321 236.329052,575.172111 C255.141233,601.047727 280.190115,622.174214 308.454319,637.104413 C295.113289,651.871553 280.435092,665.507462 264.144132,677.013396 C249.52718,674.424816 238.942138,662.806777 230.4394,651.504666 C216.077632,631.43807 206.145864,608.365053 200.092893,584.507307 C192.539441,596.104964 185.680089,608.701364 183.924421,622.632821 C183.199699,628.76796 183.454883,635.005013 184.342924,641.11977 C156.834066,615.315494 137.195088,582.295804 121.975901,548.093927 C113.350675,528.292304 106.15448,507.858823 100.693538,486.966735 C94.0179189,502.26382 87.4341661,518.019512 85.8928534,534.79433 C85.1987523,541.897639 86.3623923,549.072289 89.7104093,555.411254 C76.8389175,537.168894 68.1422394,516.368527 61.4053761,495.191084 C47.6866726,451.062918 41.8378504,404.804779 40.664003,358.71989 C40.4292335,325.730773 41.5928735,292.11999 51.3000812,260.343634 C35.070365,269.821508 21.5251869,284.425587 14.910812,302.138 C11.3484403,311.187841 9.98065295,320.900115 9.5723582,330.571623 C5.63231392,316.385386 6.29579288,301.118874 11.0320119,287.207801 C17.8913637,266.723364 31.7529702,249.357453 47.5539769,234.936817 C52.6066244,230.544382 57.7613455,226.192713 63.6101677,222.890744 C52.9638822,223.49203 41.9909609,221.820662 32.3245829,217.204021 C60.5275423,219.802792 90.0268378,218.406589 116.178116,206.564342 C138.246447,196.94379 156.170587,179.954956 170.746709,161.131694 C175.288988,155.210572 179.780231,149.248683 184.016288,143.103352 C173.461869,144.397642 162.774754,146.517424 152.118261,145.131413 C145.871352,144.397642 140.073566,141.381028 135.521079,137.100698 C142.972458,138.853595 150.964828,139.281629 158.161023,136.285397 C170.89982,131.281487 179.422972,119.581918 185.424905,107.800819 C189.181216,100.687317 192.008658,93.1559746 194.642159,85.5736753 C183.883592,93.2171221 170.634428,97.4057309 157.426093,97.1203756 C150.505497,97.018463 143.125569,94.8884891 138.838474,89.1100433 C143.217436,89.5890327 147.678056,89.9966832 152.026395,89.0692784 C161.202819,87.2654249 169.123737,81.7825258 176.136199,75.8308285 C183.689653,69.5530109 189.987599,61.9605203 197.367526,55.4890688 C185.179928,56.6916378 171.05293,57.8738241 160.998671,49.4660327 C170.317999,49.6902405 179.320899,46.6124793 187.619489,42.6276957 C197.490015,37.6237858 206.564365,31.101378 214.505698,23.4171661 C220.16058,17.8527368 227.622167,14.2959862 235.420596,12.9201658 L235.420596,12.9201658 L235.420596,12.9201658 Z" id="Shape" fill="#252122"></path>
                    <path d="M241,84 C253.890672,90.1946588 266.781346,96.4296736 280,101.897923 C276.352447,103.945994 272.585627,105.762018 269.007645,107.931157 C264.485475,103.562611 260.251529,98.9115727 255.669724,94.6237388 C255.769114,101.232047 255.689602,108.697923 260.470183,113.843323 C258.571866,115.205341 256.703363,116.587537 254.85474,118 C250.113915,106.720475 245.283639,95.4712166 241,84 L241,84 L241,84 Z" id="Shape" fill="#EC2028"></path>
                    <path d="M257,98 C260.869447,101.52 264.200363,105.58 268,109.18 C265.945603,110.47 263.911151,111.77 261.816863,113 C257.378966,109.36 257.49864,103.2 257,98 L257,98 L257,98 Z" id="Shape" fill="#FDFDFD"></path>
                    <path d="M222.359244,158.336034 C219.106127,149.24673 219.777083,139.397417 221.057998,130 C220.57003,142.868811 224.300949,156.42574 233.27752,165.874508 C243.280857,175.590308 258.041879,180.756319 271.786302,177.829254 C303.016232,170.105914 337.021477,173.33082 365.913229,187.750462 C384.20185,196.798684 399.979471,211.228597 409.79982,229.335312 C412.270157,211.937254 413.612068,194.077028 410.592767,176.648159 C409.332184,169.058332 406.455208,161.745808 401.799184,155.624649 C412.341319,167.065874 416.417882,182.964455 418.207097,198.113295 C419.874319,213.939983 418.959379,230.105593 415.014975,245.542005 C413.93738,249.691246 412.900448,253.850758 411.853351,258 C408.569736,248.992859 406.251889,239.52355 401.260386,231.255877 C390.535263,212.625371 372.17548,199.746289 352.595778,192.043489 C328.177063,182.59472 301.430337,179.287652 275.476556,182.379042 C264.924256,183.991495 253.761996,183.950414 243.748494,179.801172 C234.202626,175.908689 225.876678,168.257242 222.359244,158.336034 L222.359244,158.336034 L222.359244,158.336034 Z" id="Shape" fill="#FDFDFD"></path>
                    <path d="M435,191 C447.289575,195.726144 460.538483,194.150762 473.373362,194.65895 C486.127456,196.346132 498.841157,200.909655 509,209 C493.438592,203.237154 476.513919,203.470921 460.164847,203.287972 C450.319051,202.891587 443.038209,195.71598 435,191 L435,191 L435,191 Z" id="Shape" fill="#FDFDFD"></path>
                    <path d="M436,242.451549 C448.438775,243.339297 461.153062,240.292708 473.418367,243.53097 C488.459183,247.273635 498.62245,260.499063 505,273.704314 C498.846939,265.401853 490.795919,257.966964 480.612244,254.950638 C474.918367,253.124702 468.806123,252.620299 462.908163,253.679544 C470.5,258.743742 478.612245,263.505301 484.357143,270.73843 C491.918368,279.747055 494.969387,291.53998 495.938776,303 C493.10204,293.234771 488.571429,283.883153 481.826531,276.165799 C470.959184,263.464948 456.214286,255.04143 441.938776,246.658264 C439.846939,245.417435 437.704082,244.186693 436,242.451549 L436,242.451549 L436,242.451549 Z" id="Shape" fill="#FDFDFD"></path>
                    <path d="M225.251824,327.0731 C224.996773,317.736942 224.823338,308.359926 225.302833,299.044199 C254.705125,298.993125 284.117618,299.064628 313.51991,299.00334 C324.395289,298.921623 335.841983,300.310811 345.187055,306.317003 C363.305886,318.513252 369.202668,345.867989 357.072436,364.182792 C352.563134,371.026584 345.697157,375.878526 338.514919,379.566001 C346.186856,393.631525 353.583338,407.840052 361.326689,421.854504 C365.519729,421.864718 369.722971,421.793216 373.926214,421.987293 C374.069042,431.231519 373.95682,440.475745 373.977224,449.71997 C357.929408,450.261344 341.861189,449.811902 325.803171,449.954906 C321.487707,449.934477 317.16204,450.138769 312.86698,449.648469 C312.917989,440.394027 312.418089,431.108944 313.111829,421.885147 C316.21325,421.864718 319.324874,421.864718 322.426295,421.854504 C316.101027,409.617396 309.847174,397.349644 303.501502,385.112537 C296.064213,385.03082 288.637124,385.061463 281.199834,385.092107 C281.118217,397.349644 281.169228,409.617396 281.17943,421.874933 C285.790754,421.864718 290.402077,421.772786 295.0032,422.007722 C295.166432,431.282591 295.574514,440.61875 294.799158,449.87319 C272.752541,449.924262 250.68552,450.200057 228.659306,449.730185 C228.649105,440.475745 228.598094,431.221304 228.669508,421.966864 C233.066589,421.813645 237.46367,421.864718 241.860751,421.864718 C241.942368,390.291346 241.891358,358.717974 241.881156,327.134387 C236.341445,327.042455 230.791534,327.175246 225.251824,327.0731 L225.251824,327.0731 L225.251824,327.0731 Z" id="Shape" fill="#FDFDFD"></path>
                    <path d="M229.116362,322.982592 C228.953055,315.651676 228.963261,308.320762 229.136776,301 C256.909215,301.101536 284.681654,301.03046 312.454094,301.040614 C323.262993,300.786774 334.643466,301.873211 344.064253,307.620161 C360.405185,318.443922 366.447553,342.29478 356.516431,359.302097 C352.147962,367.27269 344.064253,372.095662 336.235712,376.187572 C336.082611,376.471872 335.77641,377.020169 335.62331,377.294316 C343.594745,392.616132 352.056102,407.694261 360.170431,422.945001 C364.110218,423.188688 368.060213,423.127766 372,423.219148 C371.928553,430.458681 371.918346,437.708367 371.989793,444.947899 C353.617727,445.008821 335.245662,445.029129 316.873596,444.937747 C316.761323,437.667753 316.83277,430.387606 316.802149,423.107459 C320.466355,423.13792 324.140769,423.208995 327.784561,422.711467 C326.51893,418.93432 324.569451,415.451627 322.701624,411.948628 C317.343105,401.520858 311.821278,391.164164 306.534205,380.69578 C297.41962,380.401324 288.274413,380.381017 279.159828,380.716086 C279.027141,394.799161 278.945487,408.902542 279.210861,422.985615 C283.865118,423.219148 288.529581,423.107459 293.183838,423.198841 C292.989911,430.448527 293.153218,437.698213 293.040944,444.947899 C272.872498,445.008821 252.693846,445.029129 232.515194,444.937747 C232.668295,437.657599 232.658088,430.367299 232.504988,423.087151 C236.914283,423.158227 241.323578,423.16838 245.732875,423.016076 C246.028869,389.681735 245.804322,356.347393 245.855356,323.023206 C240.272288,322.840441 234.689222,322.881056 229.116362,322.982592 L229.116362,322.982592 L229.116362,322.982592 Z" id="Shape" fill="#EC2028"></path>
                    <path d="M252,311.310784 C255.7147,310.882805 259.471138,310.945436 263.196271,311.206399 C266.764887,311.028944 270.343937,310.997628 273.922988,311.028944 C274.027333,313.241906 274.016899,315.454867 273.943856,317.678267 C273.317784,317.834844 272.055204,318.168876 271.42913,318.335893 C269.874383,322.918393 268.121379,327.438263 266.326636,331.947693 C264.093642,332.041639 261.871084,332.010325 259.648525,331.843308 C257.978996,327.292124 256.205123,322.772254 254.525161,318.231507 C253.919957,318.095807 252.688681,317.834844 252.073042,317.699145 C252.010434,315.56969 252,313.440237 252,311.310784 L252,311.310784 L252,311.310784 Z" id="Shape" fill="#FDFDFD"></path>
                    <path d="M254,315.07609 C256.440176,315.016337 258.880351,315.026296 261.320527,315.016337 C261.053787,316.052039 260.75741,317.067823 260.381998,318.083607 C261.231614,320.642984 262.150384,323.162528 263.059275,325.701989 C264.126235,323.182445 265.11416,320.642984 266.111965,318.103525 C265.736553,317.067823 265.371021,316.04208 264.99561,315.016337 C267.346872,315.026296 269.787048,314.797247 272,315.783154 C271.021954,316.500178 270.043908,317.207244 269.055982,317.894392 C267.327114,322.236372 265.835346,326.667979 264.096597,331 C263.088913,330.890454 262.091109,330.741074 261.113062,330.561819 C259.245884,326.389136 258.178924,321.87786 256.094402,317.804764 C255.610318,317.555798 254.632273,317.047905 254.13831,316.798939 C254.108672,316.370716 254.029638,315.504312 254,315.07609 L254,315.07609 L254,315.07609 Z" id="Shape" fill="#252122"></path>
                    <path d="M279.151689,323.126776 C288.942078,322.930372 298.74275,323.002732 308.533139,323.075091 C315.896499,323.354191 324.349964,326.837772 326.81813,334.425156 C328.96749,341.195915 328.453289,349.682622 323.03361,354.799455 C317.202569,360.174713 308.872512,360.91898 301.32404,360.99134 C293.919544,360.877633 286.504765,361.19808 279.110553,360.763925 C278.976861,348.214763 278.935725,335.665601 279.151689,323.126776 L279.151689,323.126776 L279.151689,323.126776 Z" id="Shape" fill="#FDFDFD"></path>
                    <path d="M281.017084,326.041467 C289.218127,325.979266 297.429485,326.010367 305.630528,326 C311.201046,326.103668 317.287355,327.586116 321.062929,332.002357 C326.33429,339.342027 324.539345,351.989481 315.44083,355.400147 C304.495792,359.526118 292.477912,357.369832 281.048032,357.88817 C280.95519,347.272602 281.027401,336.657035 281.017084,326.041467 L281.017084,326.041467 L281.017084,326.041467 Z" id="Shape" fill="#252122"></path>
                    <path d="M256.278205,337.480705 C259.822955,336.99623 263.438957,336.759147 266.983708,337.346701 C268.711552,338.563041 267.651689,341.40804 267.918881,343.366553 C267.366684,343.6861 266.262289,344.325194 265.710091,344.634433 C265.745717,346.489867 265.799155,348.355608 265.870407,350.211042 C268.702645,351.478922 267.909975,355.004247 267.749659,357.746165 C264.187096,357.931708 260.597813,358.199715 257.044155,357.766781 C255.369751,355.736111 255.699287,351.489231 258.104018,350.221351 C258.157456,348.334992 258.193082,346.448635 258.219801,344.572585 C257.712136,344.232422 256.678993,343.552097 256.162421,343.211934 C256.189141,341.294652 256.224766,339.387678 256.278205,337.480705 L256.278205,337.480705 L256.278205,337.480705 Z" id="Shape" fill="#FDFDFD"></path>
                    <path d="M259.030168,341.03272 C261.986592,340.982382 264.943016,341.002517 267.909497,341.012585 C267.899442,341.666981 267.899442,342.975775 267.889385,343.640239 C267.255866,343.630171 265.988827,343.599968 265.355308,343.5899 C265.385474,347.214252 265.385474,350.828535 265.375419,354.452886 C265.998882,354.432751 267.265921,354.372346 267.889385,354.342143 C267.919553,355.006607 267.979889,356.335536 268,357 C265.003352,356.979865 261.996648,356.959729 259,357 C259.010056,356.335536 259.030168,355.016674 259.040224,354.362278 C259.603352,354.382414 260.739665,354.422683 261.302793,354.442818 C261.332961,350.828535 261.302793,347.214252 261.322905,343.5899 C260.749721,343.599968 259.613408,343.620103 259.040224,343.630171 C259.040224,342.975775 259.030168,341.677049 259.030168,341.03272 L259.030168,341.03272 L259.030168,341.03272 Z" id="Shape" fill="#252122"></path>
                    <path d="M53.7771842,369.318825 C53.4663897,362.88259 52.8551607,356.446354 53.0312775,350 C56.9058484,373.336412 62.8834617,396.379348 70.9330381,418.673413 C73.3261554,407.420122 79.9460773,396.207309 91,391.289055 C85.9133308,394.922086 83.1472602,400.599332 80.8163017,406.145019 C74.5486136,421.173021 70.6429633,437.030851 67.9079721,453 C63.815845,446.23993 62.5208681,438.356554 60.8736576,430.797013 C57.1234045,410.486441 55.248278,389.892513 53.7771842,369.318825 L53.7771842,369.318825 L53.7771842,369.318825 Z" id="Shape" fill="#FDFDFD"></path>
                    <path d="M254.200442,364.268226 C258.714255,363.885604 263.260541,363.926969 267.785179,364.299249 C267.98002,367.04998 268.72691,370.514245 265.447089,371.868927 C265.544509,373.864759 265.641929,375.870931 265.782647,377.877103 C266.031611,376.181164 266.183154,374.464542 266.377995,372.768603 C268.813505,372.634169 271.25984,372.644509 273.706175,372.809967 C273.890192,376.450032 274.279874,380.141801 273.673702,383.761184 C273.381441,384.019712 272.786094,384.536766 272.493832,384.795294 C266.388819,385.022796 260.218859,385.219277 254.146319,384.464378 C254.059724,382.344454 254.048899,380.22453 254.081373,378.114948 C254.65507,378.032219 255.780818,377.887443 256.354515,377.815055 C256.332866,375.829566 256.322043,373.864759 256.300393,371.88961 C253.237062,370.348787 254.070548,366.936227 254.200442,364.268226 L254.200442,364.268226 L254.200442,364.268226 Z" id="Shape" fill="#FDFDFD"></path>
                    <path d="M256.584415,366 C259.444976,366.01005 262.305536,366 265.166097,366.020101 C265.268626,366.623115 265.473684,367.809045 265.586466,368.40201 C264.950786,368.542714 263.689679,368.834171 263.064251,368.974874 C263.043746,372.44221 263.02324,375.919598 263.084758,379.386934 C264.714969,379.386934 266.345181,379.376885 267.985646,379.366834 C268.006151,377.718593 268.026657,376.070352 268.057416,374.432161 C268.77512,374.41206 270.210526,374.37186 270.938482,374.351759 C270.958989,376.894473 270.958989,379.447236 271,382 C265.996582,381.919598 261.003418,382.070352 256,381.879397 C256.24607,380.311558 257.056049,379.155778 258.758031,378.924623 C258.78879,375.698492 258.96309,372.462311 258.665755,369.246231 C258.091592,369.005025 256.933014,368.532663 256.358851,368.291457 C256.410116,367.718593 256.522899,366.572864 256.584415,366 L256.584415,366 L256.584415,366 Z" id="Shape" fill="#252122"></path>
                    <path d="M256.487191,398.69381 C253.64965,397.467826 253.284208,393.203083 255.165155,391.222648 C259.313983,390.782553 263.495058,391.149299 267.665385,391.044514 C268.095315,393.894662 268.86919,397.331606 265.623215,398.861465 C265.698452,400.999076 265.741446,403.157644 265.988656,405.284777 C266.139131,403.555827 266.268111,401.826876 266.375593,400.097927 C268.858442,399.710222 271.384283,399.720701 273.877881,400.07697 C274.049853,404.01688 274.082098,407.977748 273.695161,411.90718 C267.299943,411.98053 260.893978,412.095792 254.488013,411.854788 C254.337538,409.539042 253.499173,406.877507 255.466106,405.043772 C257.164331,403.335778 256.325967,400.799985 256.487191,398.69381 L256.487191,398.69381 L256.487191,398.69381 Z" id="Shape" fill="#FDFDFD"></path>
                    <path d="M256,392.218207 C259.27645,392.421974 263.013652,391.2605 266.023891,392.860075 C265.28669,393.379681 263.822525,394.429084 263.095564,394.95888 C263.064846,398.463681 263.085324,401.978671 263.064846,405.49366 C264.71331,405.49366 266.372014,405.503849 268.040956,405.503849 C268.051195,403.822767 268.051195,402.131495 268.071673,400.460602 C268.798635,400.450414 270.242321,400.440225 270.959044,400.430037 C270.948805,402.946566 270.969284,405.473282 271,408 C266.228669,407.989812 261.457337,407.979623 256.686006,408 C256.583618,407.460016 256.37884,406.390236 256.27645,405.850252 C256.911262,405.717804 258.191126,405.442718 258.825939,405.30008 C258.825939,401.825845 258.856655,398.361797 258.825939,394.887561 C257.341297,394.561534 256.399317,393.664956 256,392.218207 L256,392.218207 L256,392.218207 Z" id="Shape" fill="#252122"></path>
                    <path d="M254.15923,417.385333 C259.680478,416.858011 265.25201,416.920048 270.783313,417.281936 C271.014622,420.073641 271.064907,422.875684 270.914053,425.688068 C269.445743,425.853503 267.967376,426.018937 266.499067,426.174031 C266.529238,426.846108 266.579523,428.190261 266.599636,428.872679 C268.037775,428.996754 269.465857,429.162188 270.903996,429.368982 C271.014622,432.140006 271.034736,434.911031 270.934167,437.682056 C265.322408,438.095641 259.660364,438.126661 254.048604,437.651037 C254.12906,435.107485 253.404962,432.098648 255.677825,430.29955 C255.707996,428.490112 255.707996,426.691013 255.677825,424.902254 C253.404962,423.041118 254.139117,419.959905 254.15923,417.385333 L254.15923,417.385333 L254.15923,417.385333 Z" id="Shape" fill="#FDFDFD"></path>
                    <path d="M256.597286,418 C260.38914,418.040262 264.180995,418 267.9819,418.030197 C267.882353,419.731295 267.764706,421.442458 267.312218,423.083162 C266.651584,419.912476 263.882352,420.64727 261.719457,420.596942 C261.701357,422.126923 261.701357,423.656905 261.701357,425.196951 C262.352942,425.317739 263.674208,425.539184 264.325792,425.659972 C263.665158,426.072665 262.352942,426.887983 261.701357,427.300676 C261.719457,428.669606 261.728507,430.038537 261.737556,431.417534 C263.067873,431.387335 264.39819,431.367205 265.728507,431.367205 C266.244344,430.803527 267.285068,429.666107 267.809955,429.10243 C267.855203,430.712937 267.927602,432.323442 268,433.944015 C264.244344,433.903753 260.470588,434.16546 256.723982,433.813162 L256,431.598715 C256.515837,431.528255 257.565611,431.397402 258.081448,431.326942 C258.00905,427.884484 258.180995,424.452092 258.00905,421.0197 C257.556561,420.768058 256.651583,420.274841 256.199096,420.023199 C256.298643,419.519915 256.497737,418.503284 256.597286,418 L256.597286,418 L256.597286,418 Z" id="Shape" fill="#252122"></path>
                    <path d="M426.763935,430 C428.450405,433.594749 430.846428,437.754964 435.257988,438.370918 C440.769867,438.996971 444.94491,434.644901 448.153318,430.858296 C447.063282,437.139011 449.161087,443.874116 453.829731,448.327163 C456.441703,450.881858 460.431646,452.255133 464.041104,451.134298 C467.372913,450.144732 469.892335,447.630427 472.123824,445.12622 C473.614911,451.396836 475.034014,458.313699 479.949458,462.968697 C482.880215,466.048469 488.021893,465.311343 490.921801,462.554696 C497.801366,456.465836 500.331072,447.297207 502.398027,438.764725 C505.153967,447.398183 505.123118,456.576911 504.91745,465.53349 C504.403282,473.207674 503.847981,481.326153 499.518688,487.990576 C490.171116,480.265904 476.391417,483.951531 467.167245,490 C467.48603,484.416022 467.897364,478.08482 464.329038,473.349041 C461.861033,470.127903 457.192389,470.360149 453.716614,471.581959 C447.39235,473.823629 442.024437,478.024234 437.067859,482.376304 C438.589795,475.196903 440.790434,467.835745 439.556431,460.444295 C439.350764,458.253113 437.962511,456.475934 436.800491,454.698755 C434.918637,454.688657 432.882533,454.375631 431.237196,455.476271 C426.1675,458.414675 422.465492,463.089869 419,467.653988 C422.403792,455.284416 424.563296,442.622013 426.763935,430 L426.763935,430 L426.763935,430 Z" id="Shape" fill="#FDFDFD"></path>
                    <path d="M125.322662,504 C128.660866,521.219982 135.43752,537.560036 144.168978,552.631357 C149.482034,561.492025 154.865264,570.608486 162.53411,577.586519 C160.228444,581.750827 161.110612,586.682516 162.463937,591.010532 C164.077903,596.249172 166.654235,601.078543 169,606 C156.649649,591.153777 146.03356,574.772796 137.452472,557.368643 C129.663329,540.834186 123.498179,522.611495 125.322662,504 L125.322662,504 L125.322662,504 Z" id="Shape" fill="#FDFDFD"></path>
                    <path d="M402,600 C400.397623,619.152096 391.57944,637.276568 378.709385,651.532336 C359.572706,672.82028 332.944655,686.743582 305,693 C323.289562,686.622684 339.854272,676.21547 355.132996,664.558986 C369.860585,652.952876 383.302189,639.341892 392.640887,623.061099 C396.907092,615.877803 399.632155,607.959051 402,600 L402,600 L402,600 Z" id="Shape" fill="#FDFDFD"></path>
                </g>
            </g>
        </g>
    </g>
</svg>