<?xml version="1.0" encoding="UTF-8"?>
<svg width="1000px" height="1000px" viewBox="0 0 1000 1000" version="1.1" xmlns="http://www.w3.org/2000/svg" xmlns:xlink="http://www.w3.org/1999/xlink">
    <!-- Generator: Sketch 40 (33762) - http://www.bohemiancoding.com/sketch -->
    <title>Rville Spirit Logo</title>
    <desc>Created with Sketch.</desc>
    <defs></defs>
    <g id="Page-1" stroke="none" stroke-width="1" fill="none" fill-rule="evenodd">
        <circle id="background" fill="#EC2028" cx="500" cy="500" r="500"></circle>
        <g id="logo" transform="translate(208.000000, 139.000000)">
            <path d="M209.5976,8.47311177 C217.779111,2.88779659 227.75383,0.625132412 237.524775,0.0951390007 C257.759496,-0.771196382 277.698745,4.3860472 296.58856,11.2046163 C307.398751,15.3222574 318.484036,19.582589 327.470453,27.0942264 C342.834984,39.630609 352.076119,58.1192253 357.068572,77.0053367 C358.556119,82.2543098 359.473101,87.6459736 360.614233,92.9866765 C362.611214,101.629646 366.880272,109.793583 373.115744,116.153504 C382.295746,125.397812 394.16556,131.513121 403.009335,141.144731 C405.220279,144.355268 409.479148,142.449331 412.688583,143.132207 C432.841794,145.680252 451.87425,153.304004 471.059538,159.592579 C485.01803,162.558503 498.497655,155.536091 510.173884,148.656369 C513.464828,161.610631 504.631241,173.504907 495.614259,181.770765 C502.562939,183.99266 508.676148,188.110301 514.371621,192.564285 C529.583322,204.529905 542.400683,219.237223 553.750873,234.851644 C564.469366,250.048185 573.659556,266.488173 579.467106,284.222568 C583.685219,297.299137 585.987861,311.170695 584.592012,324.919946 C583.624087,318.488681 580.455407,312.719907 577.215406,307.185552 C572.294273,299.042 566.843329,291.183828 560.444838,284.130839 C555.126346,278.056299 548.982571,272.50156 541.585588,269.097372 C563.858046,303.180025 574.882199,344.325859 573.048236,384.972277 C571.621821,424.599477 559.161064,463.40111 539.415399,497.626453 C538.223324,483.703935 537.347097,469.740647 535.411247,455.889472 C534.54521,450.018776 533.597662,443.974813 530.530869,438.776801 C532.894644,463.513224 529.807473,488.443298 523.755396,512.445885 C513.709356,551.594052 496.826712,589.34589 472.11916,621.471645 C459.077648,637.942209 443.713117,653.169328 424.935377,662.964014 C435.185191,650.539745 441.807833,635.353395 444.405947,619.494362 C446.423306,607.854891 446.606702,595.970808 445.791608,584.219223 C436.907078,620.829538 418.8833,656.420633 389.509333,680.769754 C361.235743,704.68061 324.658377,716.350657 288.356106,720.580413 C258.625534,724.106908 228.568925,723.352686 198.78741,721.028868 C189.923257,720.447914 181.120236,719.265621 172.256084,718.857934 C189.709295,718.215826 206.693826,712.589743 222.139867,704.68061 C231.391189,699.737402 240.408172,693.418251 245.797985,684.184134 C237.891567,681.493399 232.094209,675.041749 226.734962,668.946824 C214.722507,654.433159 204.085524,638.339704 197.911183,620.432043 C193.367031,638.727007 198.991183,659.620979 213.347035,672.157361 C178.613821,658.306187 151.022872,630.746529 131.083623,599.660378 C117.787394,578.593139 106.885505,555.823807 100.303617,531.749876 C98.520598,547.496795 98.2149374,564.099858 104.76626,578.888712 C106.38626,582.863663 108.637958,586.512464 110.696072,590.263187 C81.5564438,567.85058 62.9519118,534.57311 50.868136,500.419111 C40.190398,470.08718 34.1892649,438.277384 31.0409624,406.335089 C28.3307732,377.440255 27.7805843,348.280426 30.511151,319.365209 C31.5402078,309.020145 32.9768118,298.664889 35.9519067,288.676552 C25.4269991,302.425803 17.6326579,318.651755 15.8903935,336.029424 C14.9734121,344.753932 15.4624688,353.559976 16.6952993,362.233521 C5.64058014,346.374488 -0.839421094,327.009344 0.0877488941,307.583047 C0.923220752,286.699268 9.64473185,266.671632 22.4824701,250.39472 C28.3919053,242.944235 35.0247367,235.738364 43.3692666,230.998999 C30.6537924,230.560736 19.038696,220.174903 17.6020919,207.434677 C41.3213417,209.554651 65.5092709,209.350806 88.7598414,203.704339 C107.445883,199.229971 125.490037,191.04565 140.171926,178.509267 C147.660607,172.35319 153.957213,164.933282 159.754571,157.197417 C147.56891,158.5224 135.525888,153.599577 126.641358,145.425447 C118.877583,138.229767 111.827016,129.209687 110.196827,118.467129 C120.334564,124.348017 132.020981,129.199495 143.972305,126.987793 C157.207402,124.633398 167.141365,114.145644 173.927027,103.158473 C162.576836,106.053052 149.830796,107.082463 139.163247,101.344265 C130.757585,97.0227801 125.408527,88.6346151 122.280602,79.9712614 C129.005132,81.3777824 136.055699,81.8568149 142.739474,79.9406848 C153.396834,77.2397568 162.260988,70.4721486 171.328913,64.581068 C168.34363,63.9593451 165.388913,63.0420488 162.851931,61.3093779 C153.733062,55.3061834 146.967777,46.163797 142.800607,36.1550754 C148.822117,37.1844856 154.914949,38.6113909 161.058723,37.8164008 C173.957593,36.6341079 185.664389,29.9276527 195.272314,21.5394877 C200.285146,17.442231 204.156844,12.0709517 209.5976,8.47311177 L209.5976,8.47311177 L209.5976,8.47311177 L209.5976,8.47311177 Z" id="Shape" fill="#252122"></path>
            <path d="M227.054296,8.51282129 C240.58946,4.39094584 255.124207,5.8805345 268.68997,9.10457569 C282.327133,12.3796302 295.413505,17.6442038 307.989886,23.8168143 C316.792332,28.1121351 324.941991,33.9276524 331.28628,41.4368116 C341.822696,53.6698034 348.248584,68.9023778 352.073518,84.4614374 C353.858486,91.0727624 354.29708,98.0717885 357.224429,104.346426 C360.335373,111.83518 365.649481,118.191438 371.728576,123.476417 C382.315992,132.883271 395.239166,139.54561 404.663802,150.289013 C413.129654,149.676853 421.513908,151.411305 429.765565,153.125353 C444.36151,156.349393 458.671862,160.726336 472.870013,165.37875 C484.742607,168.86806 496.605,163.185177 506.631425,157.257431 C502.531098,169.408802 492.02528,177.560728 483.049437,186.059546 C499.49155,190.875203 513.108313,202.026711 525.3685,213.586328 C548.450697,236.328061 566.08619,264.507814 577,294.993369 C569.176736,281.505449 557.895732,269.8234 544.013775,262.569309 C539.179059,259.988035 533.834352,258.539257 528.438646,257.723044 C552.030835,290.70825 565.841394,330.672077 566.871577,371.258267 C568.156755,407.406298 559.7725,443.482912 545.145955,476.427307 C543.279388,457.419748 538.281474,438.738673 530.845804,421.159487 C529.020036,416.976395 526.908672,412.915736 524.348517,409.140751 C529.734023,454.675231 521.716962,501.066735 505.387048,543.673052 C490.9441,581.157633 469.820266,616.132358 442.994734,646.056766 C451.164792,630.324261 453.286355,612.265548 452.755964,594.767984 C452.43977,582.218709 450.940396,569.751056 449.859215,557.252796 C440.862971,592.237724 426.940213,626.896167 403.021631,654.453556 C391.210237,667.972083 377.134482,679.521497 361.416556,688.203962 C342.077692,699.08 320.617266,705.67092 298.891644,709.762187 C274.850663,714.271764 250.381289,715.853177 225.973115,716.751011 C220.954802,716.924456 215.926289,717.179523 210.918177,716.812227 C221.107799,715.985811 230.563034,711.374208 238.886089,705.691325 C247.606938,699.722768 255.542399,691.53003 258.173953,681.000883 C250.697483,679.490889 244.485792,674.736449 239.161485,669.502483 C227.41129,657.534761 218.435446,643.128602 210.877377,628.232715 C205.53267,617.570933 200.96315,606.450032 198.188799,594.8292 C192.4157,607.59273 188.070574,621.458147 188.539766,635.609239 C188.845761,643.046981 191.334517,650.382694 196.108035,656.167604 C167.813728,636.884573 146.812293,608.715022 130.716974,578.862034 C117.661201,554.100172 107.491978,527.79771 100.586698,500.668832 C95.3847892,513.718037 92.4676399,527.68548 91.8250511,541.724344 C91.3660591,551.631129 92.6206373,561.94602 97.7613477,570.618283 C84.5321781,556.8855 74.9443452,540.071512 67.437276,522.665771 C57.1252555,498.658908 50.4443719,473.264481 45.5892566,447.645598 C39.2143676,413.089181 36.2768187,377.910403 36.4706153,342.772435 C37.0520052,319.020637 38.0821873,294.921949 44.6916721,271.955757 C35.0834395,280.005657 26.4951891,289.575754 21.0790834,300.982331 C13.7658108,315.704772 11.9502424,332.437138 12.205238,348.679776 C4.22897694,331.304642 1.68922118,311.28702 6.26894141,292.636554 C11.4504512,271.027315 24.7612193,252.121782 41.0605354,237.35853 C45.2934617,233.481519 49.8935815,230.012614 54.748697,226.951815 C47.0172316,227.08445 38.7451757,226.502897 32.125491,222.085146 C29.2491411,220.207856 27.647769,217.024625 26.5155888,213.882205 C49.8833818,215.963548 73.7917652,215.749292 96.5781683,209.617493 C112.275695,205.516023 127.167436,198.282334 139.958013,188.293928 C153.656374,177.703565 164.539584,164.083012 174.657809,150.16658 C153.605375,153.15596 130.992369,144.249037 118.517986,126.853498 C127.585629,131.832397 137.938448,136.025691 148.485065,134.076983 C160.928848,132.118072 170.751277,122.905068 177.381161,112.671798 C181.195895,106.652227 184.255841,100.153131 186.530402,93.3989693 C174.994403,101.44887 159.592671,103.254741 146.332901,98.8369882 C139.274624,96.6434158 133.022133,91.7971514 129.78879,85.0735971 C136.898066,86.3183219 144.303137,86.675415 151.259416,84.4002214 C165.212773,80.2783459 175.269797,69.2288629 186.938395,61.2197733 C173.39303,62.0053782 157.440509,56.791818 151.902005,43.2936961 C157.103914,44.0486931 162.387422,45.0587567 167.65053,44.171125 C183.603053,42.12039 197.148416,32.0503626 208.041826,20.7764211 C213.162137,15.1037409 219.741023,10.7574069 227.054296,8.51282129 L227.054296,8.51282129 L227.054296,8.51282129 L227.054296,8.51282129 Z" id="Shape" fill="#FDFDFD"></path>
            <path d="M235.420596,12.9201658 C246.454762,10.8921046 257.805356,12.461559 268.57413,15.2437737 C287.03926,20.1865359 304.218262,28.9000652 320.590881,38.6123382 C334.432072,47.3768239 341.914074,62.9898379 345.833703,78.3684528 C348.375338,86.8577744 348.589692,95.9279979 351.947916,104.193112 C354.857016,111.520629 359.511577,118.093994 365.166459,123.576892 C376.506845,134.919768 391.266701,142.165755 402.249829,153.90609 C411.620194,153.284423 420.888485,155.230954 429.973043,157.228441 C441.150111,159.837404 452.204691,162.986505 463.065331,166.706315 C475.028367,170.629951 488.767485,171.159897 500.189531,165.248965 C493.432253,173.381592 485.062211,179.924383 477.100464,186.813676 C494.361124,193.274937 509.825287,203.812701 523.390881,216.174702 C537.732233,229.423344 550.103564,245.005784 558.585887,262.646859 C560.596738,266.713173 562.41365,270.89159 563.597706,275.273833 C558.841072,265.133528 548.623496,258.927048 538.293638,255.594506 C532.751037,253.760079 526.963459,252.853056 521.196296,252.098903 C533.210369,269.077545 544.03018,287.065124 551.51218,306.530435 C559.188122,326.056893 563.42418,346.928599 563.924341,367.902217 C564.822589,398.975375 557.626395,429.640884 547.459855,458.818469 C545.683773,441.381219 539.151057,424.800035 531.281175,409.268551 C527.943367,402.909203 524.452446,396.580429 519.89996,391.005809 C525.493598,433.839685 521.502517,477.764025 509.049528,519.099786 C496.882343,559.467376 477.202537,597.572506 451.51059,631.010038 C457.196095,612.849209 458.951762,593.424663 455.889551,574.601401 C454.429897,564.59358 452.051581,554.73863 450.122388,544.812341 C440.425388,582.356951 424.542722,619.23913 398.115845,648.151741 C373.352768,675.963696 339.270365,694.440454 303.279183,703.184558 C280.384056,709.024151 256.723374,711.143934 233.174975,712 C241.187759,711.001256 248.904531,707.250872 253.977593,700.86095 C259.458949,694.297778 262.551782,686.093811 264.317658,677.818505 C281.721221,665.772434 298.573587,652.890679 314.19086,638.602528 C328.450554,625.221401 341.944695,610.810956 352.458286,594.250154 C370.760097,564.940084 384.529838,532.908947 394.441193,499.848492 C409.925771,447.964775 415.570446,393.105209 410.385103,339.19343 C408.711094,320.54342 405.158929,302.066662 399.524462,284.201379 C390.409281,254.565188 376.312906,226.763424 361.216207,199.76677 C360.675217,198.441906 359.593235,197.626605 358.184619,197.382015 C365.176666,210.854863 372.240165,224.337904 377.752145,238.503759 C397.656513,287.747938 405.955105,341.36417 403.770728,394.338352 C401.851742,439.139141 393.063197,483.787062 376.445601,525.510089 C360.950815,564.145166 339.811356,600.731798 312.578096,632.334902 C281.292512,616.100221 254.56962,591.498514 235.32873,562.035574 C209.29994,522.636154 195.91808,476.26591 189.456816,429.885475 C180.413087,362.174728 185.077854,293.363324 196.101812,226.182522 C197.592088,216.775987 200.96052,207.797485 202.603907,198.431715 C202.552869,197.646988 202.461003,196.057151 202.420173,195.262233 C197.530844,203.822892 195.479162,213.677844 193.488726,223.237247 C180.790759,298.418191 174.360118,375.810637 187.078498,451.439995 C194.713611,495.405101 209.575539,539.003321 236.329052,575.172111 C255.141233,601.047727 280.190115,622.174214 308.454319,637.104413 C295.113289,651.871553 280.435092,665.507462 264.144132,677.013396 C249.52718,674.424816 238.942138,662.806777 230.4394,651.504666 C216.077632,631.43807 206.145864,608.365053 200.092893,584.507307 C192.539441,596.104964 185.680089,608.701364 183.924421,622.632821 C183.199699,628.76796 183.454883,635.005013 184.342924,641.11977 C156.834066,615.315494 137.195088,582.295804 121.975901,548.093927 C113.350675,528.292304 106.15448,507.858823 100.693538,486.966735 C94.0179189,502.26382 87.4341661,518.019512 85.8928534,534.79433 C85.1987523,541.897639 86.3623923,549.072289 89.7104093,555.411254 C76.8389175,537.168894 68.1422394,516.368527 61.4053761,495.191084 C47.6866726,451.062918 41.8378504,404.804779 40.664003,358.71989 C40.4292335,325.730773 41.5928735,292.11999 51.3000812,260.343634 C35.070365,269.821508 21.5251869,284.425587 14.910812,302.138 C11.3484403,311.187841 9.98065295,320.900115 9.5723582,330.571623 C5.63231392,316.385386 6.29579288,301.118874 11.0320119,287.207801 C17.8913637,266.723364 31.7529702,249.357453 47.5539769,234.936817 C52.6066244,230.544382 57.7613455,226.192713 63.6101677,222.890744 C52.9638822,223.49203 41.9909609,221.820662 32.3245829,217.204021 C60.5275423,219.802792 90.0268378,218.406589 116.178116,206.564342 C138.246447,196.94379 156.170587,179.954956 170.746709,161.131694 C175.288988,155.210572 179.780231,149.248683 184.016288,143.103352 C173.461869,144.397642 162.774754,146.517424 152.118261,145.131413 C145.871352,144.397642 140.073566,141.381028 135.521079,137.100698 C142.972458,138.853595 150.964828,139.281629 158.161023,136.285397 C170.89982,131.281487 179.422972,119.581918 185.424905,107.800819 C189.181216,100.687317 192.008658,93.1559746 194.642159,85.5736753 C183.883592,93.2171221 170.634428,97.4057309 157.426093,97.1203756 C150.505497,97.018463 143.125569,94.8884891 138.838474,89.1100433 C143.217436,89.5890327 147.678056,89.9966832 152.026395,89.0692784 C161.202819,87.2654249 169.123737,81.7825258 176.136199,75.8308285 C183.689653,69.5530109 189.987599,61.9605203 197.367526,55.4890688 C185.179928,56.6916378 171.05293,57.8738241 160.998671,49.4660327 C170.317999,49.6902405 179.320899,46.6124793 187.619489,42.6276957 C197.490015,37.6237858 206.564365,31.101378 214.505698,23.4171661 C220.16058,17.8527368 227.622167,14.2959862 235.420596,12.9201658 L235.420596,12.9201658 L235.420596,12.9201658 L235.420596,12.9201658 Z" id="Shape" fill="#252122"></path>
            <path d="M241,84 C253.890672,90.1946588 266.781346,96.4296736 280,101.897923 C276.352447,103.945994 272.585627,105.762018 269.007645,107.931157 C264.485475,103.562611 260.251529,98.9115727 255.669724,94.6237388 C255.769114,101.232047 255.689602,108.697923 260.470183,113.843323 C258.571866,115.205341 256.703363,116.587537 254.85474,118 C250.113915,106.720475 245.283639,95.4712167 241,84 L241,84 L241,84 L241,84 Z" id="Shape" fill="#EC2028"></path>
            <path d="M257,98 C260.869447,101.52 264.200363,105.58 268,109.18 C265.945603,110.47 263.911151,111.77 261.816863,113 C257.378966,109.36 257.49864,103.2 257,98 L257,98 L257,98 L257,98 Z" id="Shape" fill="#FDFDFD"></path>
            <path d="M222.359244,158.336034 C219.106127,149.24673 219.777083,139.397417 221.057998,130 C220.57003,142.868811 224.300949,156.42574 233.27752,165.874508 C243.280857,175.590308 258.041879,180.756319 271.786302,177.829254 C303.016232,170.105914 337.021477,173.33082 365.913229,187.750462 C384.20185,196.798684 399.979471,211.228597 409.79982,229.335312 C412.270157,211.937254 413.612068,194.077028 410.592767,176.648159 C409.332184,169.058332 406.455208,161.745808 401.799184,155.624649 C412.341319,167.065874 416.417882,182.964455 418.207097,198.113295 C419.874319,213.939983 418.959379,230.105593 415.014975,245.542005 C413.93738,249.691246 412.900448,253.850758 411.853351,258 C408.569736,248.992859 406.251889,239.52355 401.260386,231.255877 C390.535263,212.625371 372.17548,199.746289 352.595778,192.043489 C328.177063,182.59472 301.430337,179.287652 275.476556,182.379042 C264.924256,183.991495 253.761996,183.950414 243.748494,179.801172 C234.202626,175.908689 225.876678,168.257242 222.359244,158.336034 L222.359244,158.336034 L222.359244,158.336034 L222.359244,158.336034 Z" id="Shape" fill="#FDFDFD"></path>
            <path d="M435,191 C447.289575,195.726144 460.538483,194.150762 473.373362,194.65895 C486.127456,196.346132 498.841157,200.909655 509,209 C493.438592,203.237154 476.513919,203.470921 460.164847,203.287972 C450.319051,202.891587 443.038209,195.71598 435,191 L435,191 L435,191 L435,191 Z" id="Shape" fill="#FDFDFD"></path>
            <path d="M436,242.451549 C448.438775,243.339297 461.153062,240.292708 473.418367,243.53097 C488.459183,247.273635 498.62245,260.499063 505,273.704314 C498.846939,265.401853 490.795919,257.966964 480.612244,254.950638 C474.918367,253.124702 468.806123,252.620299 462.908163,253.679544 C470.5,258.743742 478.612245,263.505301 484.357143,270.73843 C491.918368,279.747055 494.969387,291.53998 495.938776,303 C493.10204,293.234771 488.571429,283.883153 481.826531,276.165799 C470.959184,263.464948 456.214286,255.04143 441.938776,246.658264 C439.846939,245.417435 437.704082,244.186693 436,242.451549 L436,242.451549 L436,242.451549 L436,242.451549 Z" id="Shape" fill="#FDFDFD"></path>
            <path d="M53.7771842,369.318825 C53.4663897,362.88259 52.8551607,356.446354 53.0312775,350 C56.9058484,373.336412 62.8834617,396.379348 70.9330381,418.673413 C73.3261554,407.420122 79.9460773,396.207309 91,391.289055 C85.9133308,394.922086 83.1472602,400.599332 80.8163017,406.145019 C74.5486136,421.173021 70.6429633,437.030851 67.9079721,453 C63.815845,446.23993 62.5208681,438.356554 60.8736576,430.797013 C57.1234045,410.486441 55.248278,389.892513 53.7771842,369.318825 L53.7771842,369.318825 L53.7771842,369.318825 L53.7771842,369.318825 Z" id="Shape" fill="#FDFDFD"></path>
            <path d="M426.763935,430 C428.450405,433.594749 430.846428,437.754964 435.257988,438.370918 C440.769867,438.996971 444.94491,434.644901 448.153318,430.858296 C447.063282,437.139011 449.161087,443.874116 453.829731,448.327163 C456.441703,450.881858 460.431646,452.255133 464.041104,451.134298 C467.372913,450.144732 469.892335,447.630427 472.123824,445.12622 C473.614911,451.396836 475.034014,458.313699 479.949458,462.968697 C482.880215,466.048469 488.021893,465.311343 490.921801,462.554696 C497.801366,456.465836 500.331072,447.297207 502.398027,438.764725 C505.153967,447.398183 505.123118,456.576911 504.91745,465.53349 C504.403282,473.207674 503.847981,481.326153 499.518688,487.990576 C490.171116,480.265904 476.391417,483.951531 467.167245,490 C467.48603,484.416022 467.897364,478.08482 464.329038,473.349041 C461.861033,470.127903 457.192389,470.360149 453.716614,471.581959 C447.39235,473.823629 442.024437,478.024234 437.067859,482.376304 C438.589795,475.196903 440.790434,467.835745 439.556431,460.444295 C439.350764,458.253113 437.962511,456.475934 436.800491,454.698755 C434.918637,454.688657 432.882533,454.375631 431.237196,455.476271 C426.1675,458.414675 422.465492,463.089869 419,467.653988 C422.403792,455.284416 424.563296,442.622013 426.763935,430 L426.763935,430 L426.763935,430 L426.763935,430 Z" id="Shape" fill="#FDFDFD"></path>
            <path d="M125.322662,504 C128.660866,521.219982 135.43752,537.560036 144.168978,552.631357 C149.482034,561.492025 154.865264,570.608486 162.53411,577.586519 C160.228444,581.750827 161.110612,586.682516 162.463937,591.010532 C164.077903,596.249172 166.654235,601.078543 169,606 C156.649649,591.153777 146.03356,574.772796 137.452472,557.368643 C129.663329,540.834186 123.498179,522.611495 125.322662,504 L125.322662,504 L125.322662,504 L125.322662,504 Z" id="Shape" fill="#FDFDFD"></path>
            <path d="M402,600 C400.397623,619.152096 391.57944,637.276568 378.709385,651.532336 C359.572706,672.82028 332.944655,686.743582 305,693 C323.289562,686.622684 339.854272,676.21547 355.132996,664.558986 C369.860585,652.952876 383.302189,639.341892 392.640887,623.061099 C396.907092,615.877803 399.632155,607.959051 402,600 L402,600 L402,600 L402,600 Z" id="Shape" fill="#FDFDFD"></path>
            <path d="M202.548,388.16 C202.548,387.631997 202.883997,386.312011 203.556,384.2 C207.252018,372.967944 210.14399,364.532028 212.232,358.892 C214.32001,353.251972 217.307981,345.992044 221.196,337.112 C219.563992,337.448002 217.956008,337.939997 216.372,338.588 C214.787992,339.236003 213.552004,339.799998 212.664,340.28 C211.775996,340.760002 211.212001,341 210.972,341 C210.539998,341 209.952004,340.664003 209.208,339.992 C208.463996,339.319997 208.092,338.720003 208.092,338.192 C214.812034,335.503987 220.595976,334.16 225.444,334.16 C227.748012,334.16 230.003989,334.423997 232.212,334.952 C234.420011,335.480003 236.51999,336.271995 238.512,337.328 C240.50401,338.384005 242.099994,339.835991 243.3,341.684 C244.500006,343.532009 245.1,345.655988 245.1,348.056 C245.1,350.648013 244.356007,352.92799 242.868,354.896 C241.379993,356.86401 239.60401,358.375995 237.54,359.432 C235.47599,360.488005 233.076014,361.363997 230.34,362.06 C227.603986,362.756003 225.27601,363.199999 223.356,363.392 C221.43599,363.584001 219.588009,363.704 217.812,363.752 L220.332,367.712 C221.820007,370.064012 222.731998,371.479998 223.068,371.96 L225.588,375.632 C226.932007,377.60001 228.011996,379.015996 228.828,379.88 L232.068,383.552 C233.460007,385.088008 234.875993,386.479994 236.316,387.728 C237.756007,388.976006 239.339991,390.247994 241.068,391.544 C240.875999,392.456005 240.312005,393.211997 239.376,393.812 C238.439995,394.412003 237.540004,394.712 236.676,394.712 C234.899991,394.712 232.572014,393.068016 229.692,389.78 C226.811986,386.491984 224.172012,382.88002 221.772,378.944 C219.371988,375.00798 217.236009,371.144019 215.364,367.352 L208.308,392.336 C206.819993,392.336 205.488006,391.940004 204.312,391.148 C203.135994,390.355996 202.548,389.360006 202.548,388.16 L202.548,388.16 Z M217.02,361.592 C220.860019,361.303999 224.375984,360.632005 227.568,359.576 C230.760016,358.519995 233.483989,356.864011 235.74,354.608 C237.996011,352.351989 239.124,349.688015 239.124,346.616 C239.124,343.207983 237.900012,340.724008 235.452,339.164 C233.003988,337.603992 229.932018,336.776 226.236,336.68 C223.547987,342.056027 220.476017,350.359944 217.02,361.592 L217.02,361.592 Z M254.388,341.36 C254.388,339.823992 254.867995,338.216008 255.828,336.536 C256.788005,334.855992 257.819994,334.016 258.924,334.016 C259.500003,334.016 260.027998,334.255998 260.508,334.736 C260.988002,335.216002 261.228,335.767997 261.228,336.392 L261.156,336.824 C259.715993,338.216007 258.372006,340.255987 257.124,342.944 L256.404,344.528 C255.059993,343.855997 254.388,342.800007 254.388,341.36 L254.388,341.36 Z M260.076,347.12 C260.076,344.047985 261.467986,341.120014 264.252,338.336 C267.036014,335.551986 270.299981,334.16 274.044,334.16 C277.260016,334.16 279.719991,335.335988 281.424,337.688 C283.128009,340.040012 283.98,343.303979 283.98,347.48 C283.98,351.224019 283.236007,355.747973 281.748,361.052 C280.259993,366.356027 278.784007,371.359976 277.32,376.064 C275.855993,380.768024 275.124,384.271988 275.124,386.576 C275.124,387.440004 275.243999,388.063998 275.484,388.448 C275.724001,388.832002 276.179997,389.024 276.852,389.024 C278.82001,389.024 281.267985,387.584014 284.196,384.704 C287.124015,381.823986 289.895987,378.332021 292.512,374.228 C295.128013,370.123979 297.359991,365.624024 299.208,360.728 C301.056009,355.831976 301.98,351.536018 301.98,347.84 C301.98,343.183977 300.372016,340.328005 297.156,339.272 C297.780003,337.927993 298.571995,336.908003 299.532,336.212 C300.492005,335.515997 301.403996,335.168 302.268,335.168 C303.660007,335.168 304.907994,336.031991 306.012,337.76 C307.116006,339.488009 307.668,341.743986 307.668,344.528 C307.668,349.616025 305.880018,355.951962 302.304,363.536 C298.727982,371.120038 294.336026,377.803971 289.128,383.588 C283.919974,389.372029 279.30002,392.264 275.268,392.264 C273.587992,392.264 272.016007,391.784005 270.552,390.824 C269.087993,389.863995 268.356,388.208012 268.356,385.856 C268.356,383.983991 269.075993,380.852022 270.516,376.46 C271.956007,372.067978 273.395993,367.064028 274.836,361.448 C276.276007,355.831972 276.996,350.600024 276.996,345.752 C276.996,342.967986 276.684003,340.844007 276.06,339.38 C275.435997,337.915993 274.284008,337.184 272.604,337.184 C270.347989,337.184 268.632006,338.359988 267.456,340.712 C266.279994,343.064012 265.692,345.559987 265.692,348.2 C265.692,349.928009 266.051996,351.487993 266.772,352.88 C264.515989,352.88 262.836006,352.352005 261.732,351.296 C260.627994,350.239995 260.076,348.848009 260.076,347.12 L260.076,347.12 Z M303.708,381.752 C303.708,379.83199 304.211995,377.300016 305.22,374.156 C306.228005,371.011984 307.595991,368.120013 309.324,365.48 C311.052009,362.839987 312.755992,361.52 314.436,361.52 C315.060003,361.52 315.575998,361.699998 315.984,362.06 C316.392002,362.420002 316.596,362.935997 316.596,363.608 C316.596,364.232003 315.984006,365.53999 314.76,367.532 C313.535994,369.52401 312.300006,371.779987 311.052,374.3 C309.803994,376.820013 309.18,378.991991 309.18,380.816 C309.18,382.304007 309.443997,383.311997 309.972,383.84 C310.500003,384.368003 311.315994,384.632 312.42,384.632 C316.212019,384.632 319.979981,380.960037 323.724,373.616 L324.804,374.768 C323.123992,378.992021 320.988013,382.279988 318.396,384.632 C315.803987,386.984012 313.020015,388.16 310.044,388.16 C308.02799,388.16 306.468006,387.560006 305.364,386.36 C304.259994,385.159994 303.708,383.624009 303.708,381.752 L303.708,381.752 Z M314.94,352.88 C314.94,351.775994 315.551994,350.804004 316.776,349.964 C318.000006,349.123996 319.307993,348.704 320.7,348.704 C322.76401,348.704 323.796,349.591991 323.796,351.368 C323.796,352.376005 323.244006,353.347995 322.14,354.284 C321.035994,355.220005 319.836006,355.688 318.54,355.688 C317.531995,355.688 316.680003,355.448002 315.984,354.968 C315.287997,354.487998 314.94,353.792005 314.94,352.88 L314.94,352.88 Z M321.996,380.168 C321.996,375.895979 323.519985,370.028037 326.568,362.564 C329.616015,355.099963 332.987982,348.500029 336.684,342.764 C340.380018,337.027971 343.115991,334.16 344.892,334.16 C345.708004,334.16 346.415997,334.807994 347.016,336.104 C347.616003,337.400006 347.916,338.719993 347.916,340.064 C347.916,342.224011 347.088008,345.28398 345.432,349.244 C343.775992,353.20402 341.388016,357.427978 338.268,361.916 C335.147984,366.404022 331.884017,369.991987 328.476,372.68 C327.947997,375.656015 327.684,378.055991 327.684,379.88 C327.684,383.192017 328.71599,384.848 330.78,384.848 C332.316008,384.848 333.923992,383.936009 335.604,382.112 C337.284008,380.287991 338.819993,377.984014 340.212,375.2 C341.076004,370.495976 342.875986,365.084031 345.612,358.964 C348.348014,352.843969 351.179985,347.648021 354.108,343.376 C357.036015,339.103979 359.267992,336.968 360.804,336.968 C361.668004,336.968 362.399997,337.627993 363,338.948 C363.600003,340.268007 363.9,341.623993 363.9,343.016 C363.9,346.424017 362.220017,351.223969 358.86,357.416 C355.499983,363.608031 351.324025,368.69598 346.332,372.68 C345.803997,375.032012 345.54,377.311989 345.54,379.52 C345.54,383.072018 346.52399,384.848 348.492,384.848 C350.220009,384.848 352.04399,383.720011 353.964,381.464 C355.88401,379.207989 357.539993,376.520016 358.932,373.4 L360.732,374.336 C356.411978,383.552046 351.612026,388.16 346.332,388.16 C344.219989,388.16 342.612006,387.464007 341.508,386.072 C340.403994,384.679993 339.828,382.784012 339.78,380.384 C336.275982,385.568026 332.55602,388.16 328.62,388.16 C326.411989,388.16 324.756006,387.440007 323.652,386 C322.547994,384.559993 321.996,382.616012 321.996,380.168 L321.996,380.168 Z M329.772,368.648 C333.516019,364.66398 336.935985,359.768029 340.032,353.96 C343.128015,348.151971 344.676,344.048012 344.676,341.648 C344.676,341.167998 344.628,340.88 344.532,340.784 C343.907997,340.784 342.696009,342.163986 340.896,344.924 C339.095991,347.684014 337.116011,351.307978 334.956,355.796 C332.795989,360.284022 331.068006,364.56798 329.772,368.648 L329.772,368.648 Z M347.484,368.72 C351.132018,364.927981 354.239987,360.548025 356.808,355.58 C359.376013,350.611975 360.66,346.928012 360.66,344.528 C360.66,344.095998 360.636,343.808001 360.588,343.664 C359.579995,343.664 357.612015,346.339973 354.684,351.692 C351.755985,357.044027 349.356009,362.71997 347.484,368.72 L347.484,368.72 Z M355.908,380.456 C355.908,376.087978 357.93598,371.588023 361.992,366.956 C366.04802,362.323977 370.235978,360.008 374.556,360.008 C378.060018,360.008 379.812,361.615984 379.812,364.832 C379.812,368.288017 377.940019,371.359987 374.196,374.048 C370.451981,376.736013 366.276023,378.319998 361.668,378.8 C361.572,379.280002 361.524,379.831997 361.524,380.456 C361.524,380.936002 361.56,381.391998 361.632,381.824 C361.704,382.256002 361.895998,382.843996 362.208,383.588 C362.520002,384.332004 363.095996,384.931998 363.936,385.388 C364.776004,385.844002 365.819994,386.072 367.068,386.072 C369.996015,386.072 372.983985,384.884012 376.032,382.508 C379.080015,380.131988 381.539991,377.168018 383.412,373.616 L384.852,374.768 C382.93199,379.088022 380.184018,382.567987 376.608,385.208 C373.031982,387.848013 369.324019,389.168 365.484,389.168 C362.459985,389.168 360.108008,388.352008 358.428,386.72 C356.747992,385.087992 355.908,383.000013 355.908,380.456 L355.908,380.456 Z M362.46,376.136 C365.244014,375.799998 368.183985,374.408012 371.28,371.96 C374.376015,369.511988 375.924,367.016013 375.924,364.472 C375.924,363.559995 375.516004,363.104 374.7,363.104 C372.587989,363.104 370.284012,364.495986 367.788,367.28 C365.291988,370.064014 363.516005,373.015984 362.46,376.136 L362.46,376.136 Z" id="R'Ville" fill="#FFFFFF"></path>
        </g>
    </g>
</svg>